<?xml version="1.0" standalone="no"?>
<!DOCTYPE svg PUBLIC "-//W3C//DTD SVG 20010904//EN"
 "http://www.w3.org/TR/2001/REC-SVG-20010904/DTD/svg10.dtd">
<svg version="1.0" xmlns="http://www.w3.org/2000/svg"
 width="1024.000000pt" height="1024.000000pt" viewBox="0 0 1024.000000 1024.000000"
 preserveAspectRatio="xMidYMid meet">

<g transform="translate(0.000000,1024.000000) scale(0.100000,-0.100000)"
fill="#000000" stroke="none">
<path d="M4110 9681 c-15 -4 -26 -15 -28 -29 -2 -12 -10 -22 -18 -22 -8 0 -14
-5 -14 -11 0 -6 6 -9 14 -6 8 3 33 11 54 17 43 11 68 33 57 50 -7 11 -27 12
-65 1z"/>
<path d="M4691 9649 c-251 -44 -481 -186 -604 -372 -21 -31 -40 -57 -42 -57
-2 0 -25 13 -52 30 -26 16 -59 31 -73 34 -14 2 -32 7 -41 11 -10 4 -19 0 -22
-9 -5 -12 0 -16 16 -16 32 0 118 -27 140 -44 17 -13 16 -19 -19 -107 -62 -160
-76 -227 -81 -404 -6 -189 9 -319 61 -501 114 -410 386 -808 723 -1059 93 -69
277 -165 405 -210 43 -15 82 -33 87 -39 10 -12 -2 -64 -59 -239 -42 -129 -18
-117 -305 -146 -323 -33 -407 -36 -508 -17 -86 16 -347 80 -377 93 -8 3 -26 7
-39 9 -13 2 -27 7 -30 11 -3 5 -16 10 -28 10 -12 1 -37 8 -55 16 -18 8 -49 19
-68 24 -35 9 -35 9 -8 15 17 3 25 1 21 -5 -4 -6 4 -7 21 -3 15 4 26 2 26 -4 0
-5 7 -10 15 -10 8 0 15 5 15 10 0 6 -7 10 -16 10 -25 0 -12 34 16 40 18 4 26
12 27 30 2 14 6 49 9 78 7 51 7 52 40 52 20 0 34 5 34 13 0 6 19 23 42 37 46
28 101 101 80 108 -14 4 -17 82 -2 82 6 0 10 33 10 80 0 64 3 80 15 80 11 0
15 11 15 40 0 29 -4 40 -15 40 -12 0 -15 19 -15 115 0 121 -20 205 -60 250
-19 21 -67 138 -73 178 -2 12 -10 36 -19 52 -8 17 -23 57 -33 90 -19 62 -38
97 -29 54 2 -13 -2 -6 -11 15 -10 25 -12 42 -5 46 9 6 -7 68 -21 80 -11 9 -43
75 -41 84 2 5 -7 19 -18 31 -21 22 -25 36 -37 118 -3 20 -9 40 -14 43 -5 3 -9
14 -9 25 0 10 -6 19 -12 19 -21 1 -67 83 -70 123 -2 36 -4 37 -30 32 -17 -4
-28 -2 -28 4 0 6 7 7 17 4 9 -4 14 -2 10 4 -3 5 15 29 40 52 25 24 54 62 64
86 22 50 81 271 69 259 -5 -5 -27 -68 -49 -140 -42 -133 -56 -156 -122 -198
-22 -14 -30 -14 -50 -4 -13 8 -25 24 -27 37 -1 14 -4 26 -6 28 -2 2 -31 -3
-65 -11 -33 -8 -61 -11 -61 -6 0 5 6 11 13 13 9 4 9 8 -2 15 -7 5 -11 14 -8
18 9 15 -235 5 -247 -10 -11 -14 -62 -31 -83 -27 -6 1 -18 -7 -25 -18 -9 -13
-28 -20 -58 -22 -63 -4 -67 -6 -68 -44 -1 -24 4 -35 16 -38 13 -4 12 -5 -4 -6
-12 0 -27 -8 -34 -16 -11 -13 -9 -19 10 -37 l23 -22 -24 -8 c-15 -5 -31 -23
-41 -48 -14 -31 -28 -44 -67 -60 -27 -12 -53 -31 -59 -43 -17 -34 -15 58 3
177 18 117 17 129 -1 61 l-13 -50 5 55 c4 30 4 53 1 50 -10 -10 -37 -185 -33
-217 3 -18 0 -35 -5 -39 -6 -3 -7 -18 -4 -34 5 -21 -1 -36 -29 -71 -42 -53
-106 -156 -106 -171 0 -6 -7 -19 -15 -29 -15 -16 -20 -14 -83 17 -37 19 -70
34 -75 34 -4 0 11 -16 33 -36 22 -20 39 -39 36 -41 -2 -3 -44 16 -92 41 -112
59 -132 59 -71 1 26 -25 47 -50 47 -55 0 -6 5 -10 12 -10 6 0 8 -3 5 -7 -4 -3
-1 -13 7 -22 19 -23 30 -61 16 -61 -6 0 -28 9 -50 20 -22 11 -46 20 -53 20
-19 0 -47 -75 -52 -141 l-5 -54 15 61 c7 34 21 77 30 95 l15 34 -5 -30 c-3
-16 -11 -57 -18 -90 l-13 -60 55 -43 c86 -68 81 -70 -11 -5 -26 18 -51 33 -55
33 -13 0 42 -51 84 -78 31 -20 43 -34 44 -52 0 -23 1 -23 9 -5 6 15 9 8 9 -28
1 -73 52 -240 68 -224 3 3 0 21 -5 39 -19 63 -23 90 -12 83 5 -3 10 -13 10
-22 0 -9 11 -39 24 -67 14 -28 27 -60 31 -70 3 -10 8 -17 10 -14 3 3 -2 47
-11 99 -12 68 -15 126 -11 209 6 134 26 218 73 315 35 72 42 101 23 89 -8 -4
-9 1 -4 17 14 45 35 78 75 119 39 40 60 45 60 14 0 -8 5 -14 10 -14 6 0 10 15
10 34 0 42 27 66 108 96 54 20 102 20 102 0 0 -6 13 -10 29 -10 29 0 41 14 41
49 0 14 11 20 53 25 78 9 206 7 256 -5 189 -43 373 -236 450 -474 40 -120 51
-189 51 -311 0 -121 -4 -127 -87 -124 -32 2 -61 2 -65 1 -5 -1 -45 -2 -90 -2
l-83 -1 -3 33 c-14 191 -43 313 -104 434 -72 145 -232 285 -289 255 -11 -7
-19 -7 -19 -1 0 5 6 11 13 14 6 2 -3 7 -20 11 -66 15 -56 -7 18 -43 104 -50
159 -91 207 -154 23 -29 42 -57 42 -61 0 -4 9 -19 21 -35 27 -37 68 -179 73
-255 2 -34 2 -50 0 -36 -33 200 -99 341 -209 442 -65 59 -188 107 -287 110
-21 1 -38 5 -38 10 0 4 5 8 11 8 6 0 17 7 25 15 10 10 25 13 42 9 23 -4 24 -4
9 6 -9 6 -26 8 -37 5 -11 -4 -39 -8 -62 -11 -24 -2 -44 -8 -46 -13 -2 -6 -9
-8 -16 -5 -14 5 -64 -31 -55 -40 3 -3 24 1 47 10 24 10 48 13 59 9 14 -6 10
-10 -23 -20 -22 -7 -54 -19 -70 -27 -16 -8 -36 -14 -44 -13 -18 1 -40 -17 -33
-27 2 -5 -2 -8 -9 -8 -7 -1 -22 -12 -33 -26 -11 -14 -32 -40 -47 -57 -70 -81
-109 -221 -111 -392 -1 -123 10 -194 55 -334 24 -73 28 -82 89 -176 85 -131
177 -180 327 -173 74 3 97 8 153 36 130 65 225 180 274 330 10 29 19 51 22 49
12 -12 -52 -164 -102 -242 -34 -53 -125 -136 -170 -156 -24 -11 -47 -24 -50
-29 -11 -18 25 -10 78 17 29 15 58 28 65 29 8 1 15 4 16 6 1 2 23 28 49 59 26
31 47 61 47 68 0 6 5 11 10 11 6 0 10 7 10 15 0 8 3 15 8 15 13 0 38 73 95
274 l11 38 138 -4 c76 -2 143 -9 148 -14 14 -14 -22 -149 -63 -237 -37 -78
-118 -194 -142 -203 -8 -4 -15 -12 -15 -20 0 -8 -4 -14 -9 -14 -4 0 -19 -11
-32 -24 -13 -13 -40 -27 -59 -31 -19 -4 -45 -14 -58 -22 -13 -8 -29 -12 -35
-10 -7 2 -29 -9 -49 -25 -34 -27 -44 -29 -135 -32 -54 -2 -123 0 -153 4 -86
11 -101 -5 -55 -57 l25 -28 -15 30 c-8 16 -13 31 -10 33 2 2 18 -3 37 -11 56
-25 128 -38 215 -39 l83 0 0 -43 c0 -32 -5 -48 -19 -57 -22 -16 -31 -49 -14
-55 7 -3 10 4 6 19 -4 23 -4 23 12 3 9 -12 11 -21 5 -23 -15 -5 -12 -42 5 -48
8 -3 17 -14 20 -24 3 -10 16 -21 30 -24 13 -3 30 -12 37 -19 7 -7 25 -18 41
-24 15 -7 27 -18 27 -26 0 -7 23 -21 50 -32 28 -11 50 -24 50 -30 0 -11 165
-89 213 -101 18 -4 26 -11 23 -20 -3 -7 0 -16 6 -20 16 -10 3 -126 -27 -224
l-25 -85 5 82 4 83 -57 -6 c-115 -10 -140 -15 -160 -34 -24 -22 -32 -25 -32
-10 0 6 15 19 33 30 l32 20 -35 -1 c-19 0 -74 3 -121 7 -82 6 -89 5 -183 -30
-53 -20 -108 -43 -122 -52 -13 -9 -24 -12 -24 -8 -1 5 -10 -2 -21 -15 -22 -27
-45 -30 -139 -18 -45 5 -47 5 -15 -2 63 -14 160 -50 163 -61 2 -6 9 -10 15
-10 7 0 38 -14 70 -29 52 -26 57 -27 52 -10 -6 19 10 28 17 9 2 -5 73 -18 158
-30 85 -11 175 -25 199 -30 24 -6 51 -8 58 -6 8 3 12 2 9 -3 -3 -5 11 -11 30
-14 20 -4 46 -14 57 -24 20 -17 20 -17 13 2 -6 16 0 13 24 -10 46 -44 118
-144 200 -280 41 -66 92 -145 115 -175 151 -198 381 -301 546 -245 57 20 121
80 155 146 21 42 26 66 26 129 1 154 -66 298 -225 482 l-61 71 -15 -31 c-10
-21 -22 -32 -35 -31 -20 0 -20 1 2 11 13 7 21 17 18 25 -3 8 -2 12 3 9 5 -3
11 31 14 77 3 45 9 96 13 112 4 17 8 45 8 63 1 27 5 32 26 33 19 1 21 2 6 6
-15 4 -16 7 -5 14 11 7 11 9 -3 9 -10 0 -18 7 -18 15 0 9 -12 21 -27 28 -15 6
-38 23 -52 37 -15 15 -26 20 -28 13 -6 -16 -103 -4 -121 14 -7 7 -31 16 -52
19 -21 4 -41 13 -44 20 -3 8 -15 14 -27 14 -36 0 -99 22 -92 33 4 6 -7 7 -29
3 -26 -5 -39 -2 -56 14 -11 11 -30 20 -42 20 -11 0 -20 4 -20 8 0 14 -51 33
-70 27 -15 -5 -90 19 -90 30 0 2 20 -2 44 -9 25 -8 47 -12 50 -9 2 3 33 -3 68
-12 137 -36 397 -86 475 -92 123 -9 656 42 704 68 14 7 29 4 56 -10 83 -44 84
-47 52 -159 -11 -40 -18 -76 -16 -79 10 -9 57 103 63 148 7 50 -4 65 -84 110
-27 15 -46 32 -44 40 2 8 15 52 29 99 15 47 31 110 38 140 14 66 25 70 124 46
113 -27 237 -36 504 -36 241 0 260 1 298 21 23 11 39 22 37 23 -1 1 -46 -1
-98 -5 -81 -7 -217 -3 -208 6 2 2 36 6 76 9 74 7 152 31 152 47 0 5 6 9 13 9
34 0 100 109 131 215 10 33 24 82 33 109 18 59 33 247 21 260 -4 6 -8 23 -8
38 0 26 -3 28 -42 29 l-43 2 35 6 c33 6 34 7 10 14 -14 4 -36 7 -50 8 -17 1
-12 4 15 9 l40 7 -45 3 -45 3 40 7 40 7 -55 3 c-51 2 -53 3 -20 10 l35 7 -35
3 c-33 2 -34 2 -10 11 18 6 9 7 -30 4 l-55 -4 45 13 c44 13 43 13 -46 10 -75
-3 -91 -1 -91 11 0 11 13 15 51 15 38 0 47 3 36 11 -11 7 -4 8 25 4 l40 -5
-40 13 c-32 11 -36 15 -20 19 17 5 17 6 -5 8 -23 1 -24 2 -5 11 15 6 6 8 -33
6 -28 -1 -52 1 -52 6 0 4 15 8 33 9 23 1 18 3 -18 7 -29 4 -56 2 -64 -4 -11
-7 -13 -7 -7 3 4 7 1 12 -9 12 -9 0 -13 5 -10 10 4 6 11 8 16 5 5 -4 9 -1 9 4
0 14 -23 14 -36 1 -12 -12 -54 -2 -54 14 0 6 -5 4 -10 -4 -8 -13 -10 -12 -10
3 0 9 7 17 15 17 8 0 15 -4 15 -9 0 -5 9 -11 20 -14 11 -3 20 -1 20 4 0 5 12
10 28 10 16 1 20 3 10 6 -10 2 -18 9 -18 14 0 6 7 6 18 1 19 -10 40 -5 60 15
11 11 8 13 -18 13 -17 0 -29 4 -25 9 3 5 1 12 -5 16 -5 3 -10 -1 -10 -9 0 -8
-5 -18 -12 -22 -7 -5 -9 -2 -5 9 4 12 2 14 -10 10 -9 -4 -14 -2 -10 3 3 5 -6
9 -21 8 -15 0 -29 -8 -33 -20 -7 -17 -8 -17 -8 -1 -1 9 -7 17 -15 17 -8 0 -17
-8 -19 -17 -4 -16 -5 -16 -6 -2 -1 17 -31 35 -31 19 0 -5 -12 -22 -27 -37 -25
-27 -26 -27 -20 -5 5 22 4 23 -44 19 -39 -3 -49 -1 -45 10 4 9 1 11 -5 7 -6
-4 -15 -1 -19 6 -5 8 -9 7 -13 -5 -4 -9 -3 -14 2 -11 5 3 14 -1 21 -9 10 -13
9 -15 -9 -15 -13 0 -21 -6 -21 -17 0 -10 4 -14 8 -8 12 17 51 35 56 26 3 -5
17 -7 31 -6 28 4 34 -9 9 -19 -8 -3 -13 -2 -10 3 3 5 -6 9 -19 9 -14 0 -25 -4
-25 -9 0 -11 66 -23 81 -14 7 5 10 3 7 -6 -3 -9 -16 -13 -34 -11 -16 1 -37 3
-46 3 -10 0 -18 7 -18 15 0 8 -5 14 -11 14 -5 0 -7 -4 -4 -10 5 -9 -1 -12 -21
-9 -8 1 -54 -51 -54 -62 0 -5 5 -9 11 -9 5 0 7 5 4 10 -3 6 -1 10 4 10 15 0
14 -5 -7 -38 -14 -25 -19 -27 -30 -16 -15 16 -32 18 -32 4 0 -5 -5 -10 -11
-10 -6 0 -8 9 -4 23 5 20 5 20 -9 -3 -13 -22 -13 -26 2 -31 9 -4 23 -2 30 3 8
7 12 7 12 -1 0 -6 -4 -11 -9 -11 -10 0 -24 -38 -22 -57 1 -7 -3 -13 -10 -13
-7 0 -9 11 -5 34 6 31 5 34 -14 29 -20 -5 -29 -23 -11 -23 5 0 8 -12 8 -27 l0
-28 -11 25 c-6 14 -15 28 -21 32 -6 4 -1 15 13 28 12 11 22 26 22 33 -1 7 -6
5 -14 -5 -7 -10 -18 -18 -24 -18 -7 0 -14 -11 -18 -25 -3 -14 -11 -25 -16 -25
-6 0 -7 7 -4 15 3 8 9 22 12 30 3 8 1 15 -5 15 -6 0 -11 -3 -10 -7 2 -16 -14
-53 -23 -53 -5 0 -4 8 2 19 13 25 13 41 0 41 -6 0 -9 -3 -8 -7 3 -11 -25 -53
-36 -53 -4 0 -4 6 1 13 16 20 23 47 13 47 -6 0 -10 -6 -10 -14 0 -8 -5 -18
-11 -22 -9 -5 -10 1 -5 20 4 18 3 25 -4 21 -5 -3 -10 -13 -10 -21 0 -17 -17
-19 -23 -1 -3 10 -9 10 -26 0 -25 -15 -31 -16 -31 -4 0 5 10 12 23 16 18 6 19
8 5 12 -9 2 -27 -1 -39 -7 -20 -11 -21 -11 -15 16 6 24 5 26 -8 15 -13 -11
-17 -10 -22 3 -7 17 -34 22 -34 6 0 -5 5 -10 11 -10 14 0 43 -29 36 -36 -3 -3
-17 2 -31 11 -28 19 -48 13 -40 -13 5 -16 5 -16 -6 0 -11 19 1 50 30 76 13 12
13 13 0 6 -8 -4 -25 -16 -36 -26 -14 -13 -24 -16 -29 -9 -3 6 1 11 9 11 9 0
16 5 16 10 0 6 -6 10 -14 10 -8 0 -16 7 -20 15 -3 8 -12 12 -21 9 -13 -5 -14
-2 -6 18 11 30 0 51 -22 42 -10 -3 -17 -1 -17 5 0 6 3 10 8 9 10 -4 11 13 0
45 -12 32 -24 36 -24 7 0 -11 4 -20 8 -20 4 0 8 -5 8 -12 0 -21 -27 15 -34 46
-6 23 -4 27 8 23 9 -4 16 -2 16 3 0 5 7 7 15 4 8 -4 15 -1 15 4 0 6 -12 9 -26
6 -18 -3 -25 -1 -21 8 2 7 12 12 21 10 14 -3 16 0 7 17 -6 11 -11 31 -11 45 0
14 -4 26 -9 26 -10 0 -9 -39 2 -57 6 -10 0 -23 -12 -23 -3 0 -7 11 -7 25 -1
14 -5 37 -8 51 -6 21 -4 25 8 21 9 -4 18 -1 22 6 4 7 4 9 -1 5 -9 -9 -35 9
-35 23 0 5 7 9 15 9 8 0 15 4 15 10 0 5 -7 7 -15 4 -8 -4 -15 -2 -15 4 0 5 7
12 14 15 12 5 13 13 5 39 -11 41 -12 38 6 38 8 0 15 4 15 10 0 5 -7 7 -15 4
-8 -4 -15 -1 -15 5 0 10 14 15 34 12 5 -1 6 5 2 14 -3 9 -6 22 -7 28 -1 7 -5
1 -9 -13 l-8 -25 -1 28 c-1 21 3 27 17 25 11 -2 16 3 14 15 -2 9 2 17 8 17 6
0 9 -4 6 -9 -3 -4 1 -16 8 -26 11 -16 13 -14 9 16 -4 32 -3 33 11 15 14 -17
15 -15 13 25 -1 28 3 44 12 47 8 3 11 0 7 -6 -3 -6 -3 -17 0 -25 5 -14 8 -13
25 1 10 9 19 21 19 28 0 6 9 19 20 29 18 16 20 16 20 2 0 -10 4 -17 9 -17 5 0
7 9 4 20 -6 24 -19 25 -40 5 -8 -9 -18 -13 -22 -9 -3 4 0 9 7 11 10 4 10 8 1
19 -7 8 -9 17 -5 21 3 3 6 1 6 -5 0 -7 15 -12 34 -12 19 0 38 -5 41 -11 4 -6
13 -8 21 -5 7 3 16 1 19 -4 10 -16 -30 -16 -42 0 -10 13 -11 11 -6 -7 6 -25 8
-26 38 -14 11 5 25 4 32 -1 12 -10 16 -4 38 60 2 6 10 12 16 12 9 0 8 -4 0
-14 -10 -11 -8 -16 8 -21 12 -3 21 -13 21 -21 0 -8 5 -14 11 -14 6 0 8 7 5 16
-4 12 -2 15 9 11 8 -4 19 1 24 11 5 9 13 13 18 8 4 -5 3 -11 -4 -13 -7 -2 -11
-10 -9 -16 1 -7 1 -9 -1 -4 -6 10 -23 -1 -23 -15 0 -6 3 -8 7 -5 3 4 17 0 30
-8 13 -9 23 -11 23 -6 0 5 -5 11 -11 13 -6 2 -8 14 -3 32 5 20 9 24 15 14 12
-18 11 -31 -1 -23 -5 3 -10 1 -10 -4 0 -6 5 -11 10 -11 6 0 10 -12 11 -27 l1
-28 8 25 c5 17 8 19 9 8 1 -10 6 -18 11 -18 6 0 10 -5 10 -11 0 -5 -4 -7 -10
-4 -5 3 -10 1 -10 -4 0 -6 11 -11 24 -11 14 0 28 -4 31 -10 3 -5 1 -10 -4 -10
-6 0 -11 -5 -11 -12 0 -8 6 -7 16 4 18 18 11 38 -13 38 -10 0 -13 6 -9 16 3 9
6 20 6 25 0 6 5 7 10 4 8 -5 7 -11 -1 -21 -8 -9 -8 -14 -1 -14 6 0 16 8 21 18
6 9 11 12 11 6 0 -16 38 -25 44 -10 3 7 5 7 5 -1 1 -7 10 -13 21 -13 16 0 20
-6 18 -29 -2 -22 -5 -27 -14 -20 -8 6 -13 3 -17 -11 -3 -11 -1 -23 4 -26 5 -3
9 -1 9 4 0 6 9 8 20 5 30 -8 24 -20 -10 -21 -16 0 -30 4 -30 9 0 6 -4 7 -10 4
-5 -3 -10 -1 -10 4 0 6 5 11 10 11 6 0 10 7 10 16 0 13 -2 13 -14 2 -7 -8 -16
-25 -20 -38 -6 -19 -5 -21 3 -10 8 11 11 12 11 2 0 -7 5 -10 10 -7 6 3 10 2
10 -4 0 -6 7 -8 15 -5 8 4 15 1 15 -5 0 -6 -9 -11 -19 -11 -11 0 -22 -4 -25
-9 -7 -10 72 3 82 14 4 5 -1 5 -10 2 -10 -4 -18 -2 -18 3 0 6 7 10 15 10 9 0
15 10 15 26 0 19 4 25 15 20 11 -4 15 1 15 19 0 16 6 25 15 25 8 0 15 -5 15
-11 0 -5 -5 -7 -11 -3 -9 5 -10 -1 -5 -20 3 -14 3 -26 -1 -25 -24 4 -32 -4
-31 -31 1 -26 5 -30 30 -30 19 0 28 5 28 16 0 12 10 15 48 13 26 -2 50 -8 54
-13 5 -8 8 -7 8 1 0 6 14 14 30 18 17 4 30 13 30 20 0 9 22 13 87 14 96 1 127
10 42 12 -46 1 -49 3 -24 9 24 6 18 8 -35 11 l-65 3 75 6 c56 5 64 7 30 8 -92
4 -64 17 33 15 83 -1 94 0 58 8 -64 13 -62 19 5 13 46 -4 55 -3 41 6 -9 6 -21
9 -26 6 -5 -4 -20 -2 -33 3 -21 9 -19 10 15 10 35 1 44 9 37 36 -2 6 -2 18 -2
28 0 9 -5 17 -11 17 -7 0 -6 4 3 10 10 6 11 10 2 10 -6 0 -11 3 -10 8 4 10
-43 136 -52 142 -4 3 -16 23 -28 45 -51 101 -118 200 -176 262 -161 174 -298
297 -371 335 -16 9 -70 37 -119 63 -49 26 -100 48 -113 48 -12 0 -23 3 -23 7
0 4 -10 8 -22 8 -13 0 -48 8 -78 17 -65 21 -158 33 -255 35 -51 2 -63 4 -45
10 l25 8 -26 1 c-38 1 -188 -26 -237 -43 -24 -9 -41 -12 -38 -7 3 4 24 14 48
21 24 7 48 17 53 20 37 26 209 40 330 28 55 -5 150 -23 210 -38 61 -16 111
-27 113 -25 6 6 -154 54 -233 70 -101 20 -264 27 -334 14z m-242 -123 c-2 -2
-15 -9 -29 -15 -24 -11 -24 -11 -6 3 16 13 49 24 35 12z m-129 -79 c0 -2 -15
-13 -32 -26 l-33 -22 28 25 c26 24 37 31 37 23z m-171 -162 c-18 -25 -40 -51
-49 -58 -18 -14 -13 -7 40 61 44 56 50 54 9 -3z m-80 -112 c-12 -21 -27 -42
-32 -48 -11 -11 9 29 31 63 24 37 25 25 1 -15z m-102 -285 c-3 -8 -6 -5 -6 6
-1 11 2 17 5 13 3 -3 4 -12 1 -19z m-10 -65 c-3 -10 -5 -4 -5 12 0 17 2 24 5
18 2 -7 2 -21 0 -30z m-10 -185 c-2 -29 -3 -8 -3 47 0 55 1 79 3 53 2 -26 2
-71 0 -100z m1440 100 c-3 -8 -6 -5 -6 6 -1 11 2 17 5 13 3 -3 4 -12 1 -19z
m-106 -23 c3 2 5 -5 5 -15 0 -11 -4 -20 -8 -20 -4 0 -8 7 -8 15 0 8 -4 15 -10
15 -5 0 -10 5 -10 11 0 8 4 9 13 0 8 -6 16 -9 18 -6z m-55 -27 c3 -4 -1 -5
-10 -4 -8 1 -18 5 -22 8 -3 4 1 5 10 4 8 -1 18 -5 22 -8z m279 2 c3 -5 1 -10
-4 -10 -6 0 -11 5 -11 10 0 6 2 10 4 10 3 0 8 -4 11 -10z m-330 -20 c3 -5 1
-10 -4 -10 -6 0 -11 5 -11 10 0 6 2 10 4 10 3 0 8 -4 11 -10z m75 -15 c0 -2
-9 -3 -19 -2 -11 0 -18 5 -15 9 4 6 34 0 34 -7z m80 5 c0 -5 -5 -10 -11 -10
-5 0 -7 5 -4 10 3 6 8 10 11 10 2 0 4 -4 4 -10z m-253 -30 c-2 -23 -26 -35
-41 -20 -8 8 -6 9 6 5 11 -4 18 0 23 14 8 26 14 27 12 1z m128 -12 c-6 -22 -6
-22 14 2 20 24 20 24 14 2 -3 -12 -10 -25 -15 -28 -15 -9 -30 10 -22 29 9 25
16 21 9 -5z m352 16 c-3 -3 -12 -4 -19 -1 -8 3 -5 6 6 6 11 1 17 -2 13 -5z
m43 0 c0 -8 -19 -13 -24 -6 -3 5 1 9 9 9 8 0 15 -2 15 -3z m-490 -14 c0 -5 -2
-10 -4 -10 -3 0 -8 5 -11 10 -3 6 -1 10 4 10 6 0 11 -4 11 -10z m231 -15 c11
4 19 2 19 -4 0 -6 -9 -11 -19 -11 -11 0 -22 -6 -24 -12 -3 -7 -5 3 -5 22 0 19
2 27 5 17 3 -12 10 -16 24 -12z m59 15 c0 -5 -5 -10 -11 -10 -5 0 -7 5 -4 10
3 6 8 10 11 10 2 0 4 -4 4 -10z m117 -15 c-4 -9 -17 -14 -34 -14 l-28 2 28 4
c16 3 27 11 27 20 0 9 3 14 6 10 4 -3 4 -13 1 -22z m146 18 c-7 -2 -19 -2 -25
0 -7 3 -2 5 12 5 14 0 19 -2 13 -5z m-526 -9 c-3 -4 1 -13 9 -21 8 -9 12 -18
9 -21 -3 -3 -12 3 -20 14 -9 12 -14 14 -15 6 0 -7 -4 -10 -10 -7 -11 7 8 34
24 35 5 0 7 -3 3 -6z m306 -7 c3 -8 2 -20 -3 -26 -5 -9 -7 -4 -7 13 0 29 2 32
10 13z m-478 -7 c3 -5 1 -10 -4 -10 -6 0 -11 5 -11 10 0 6 2 10 4 10 3 0 8 -4
11 -10z m68 -22 c6 -22 5 -22 -8 -4 -17 22 -20 40 -6 32 5 -3 11 -16 14 -28z
m57 12 c0 -5 -4 -10 -10 -10 -5 0 -10 5 -10 10 0 6 5 10 10 10 6 0 10 -4 10
-10z m518 -15 c-3 -3 -9 2 -12 12 -6 14 -5 15 5 6 7 -7 10 -15 7 -18z m-328 5
c0 -5 -5 -10 -11 -10 -5 0 -7 5 -4 10 3 6 8 10 11 10 2 0 4 -4 4 -10z m140 1
c0 -6 -5 -13 -10 -16 -6 -4 -8 -11 -5 -16 4 -5 1 -9 -5 -9 -7 0 -9 7 -6 16 3
9 6 20 6 25 0 5 5 9 10 9 6 0 10 -4 10 -9z m-208 -9 c-7 -5 -10 -16 -6 -28 6
-15 4 -17 -6 -7 -15 14 -7 43 12 43 11 0 11 -2 0 -8z m308 -4 c0 -5 -5 -6 -11
-2 -8 4 -9 -1 -5 -17 6 -20 5 -21 -4 -6 -6 9 -20 17 -30 17 -36 0 -21 15 15
16 19 0 35 -3 35 -8z m45 2 c3 -5 1 -10 -4 -10 -6 0 -11 5 -11 10 0 6 2 10 4
10 3 0 8 -4 11 -10z m138 -7 c-7 -2 -19 -2 -25 0 -7 3 -2 5 12 5 14 0 19 -2
13 -5z m-70 -10 c-7 -2 -19 -2 -25 0 -7 3 -2 5 12 5 14 0 19 -2 13 -5z m410 0
c-7 -2 -19 -2 -25 0 -7 3 -2 5 12 5 14 0 19 -2 13 -5z m-1006 -33 c6 -16 8
-30 3 -30 -4 0 -11 12 -14 26 -5 20 -10 23 -21 14 -8 -7 -15 -7 -19 -1 -5 8 3
13 34 20 3 0 11 -12 17 -29z m398 20 c3 -5 1 -10 -4 -10 -6 0 -11 5 -11 10 0
6 2 10 4 10 3 0 8 -4 11 -10z m50 1 c3 -5 1 -12 -5 -16 -5 -3 -10 1 -10 9 0
18 6 21 15 7z m372 3 c-3 -3 -12 -4 -19 -1 -8 3 -5 6 6 6 11 1 17 -2 13 -5z
m-1900 -51 c-3 -10 -5 -2 -5 17 0 19 2 27 5 18 2 -10 2 -26 0 -35z m2036 40
c-7 -2 -19 -2 -25 0 -7 3 -2 5 12 5 14 0 19 -2 13 -5z m60 0 c-7 -2 -21 -2
-30 0 -10 3 -4 5 12 5 17 0 24 -2 18 -5z m-436 -9 c-3 -3 -12 -4 -19 -1 -8 3
-5 6 6 6 11 1 17 -2 13 -5z m-712 -14 c3 -5 1 -10 -4 -10 -6 0 -11 5 -11 10 0
6 2 10 4 10 3 0 8 -4 11 -10z m525 0 c0 -5 -2 -10 -4 -10 -3 0 -8 5 -11 10 -3
6 -1 10 4 10 6 0 11 -4 11 -10z m100 6 c0 -2 -9 -6 -20 -9 -11 -3 -20 -1 -20
4 0 5 9 9 20 9 11 0 20 -2 20 -4z m17 -18 c-3 -8 -6 -5 -6 6 -1 11 2 17 5 13
3 -3 4 -12 1 -19z m137 10 c-3 -4 -9 -8 -15 -8 -5 0 -9 4 -9 8 0 5 7 9 15 9 8
0 12 -4 9 -9z m-704 -8 c0 -5 -4 -10 -10 -10 -5 0 -10 5 -10 10 0 6 5 10 10
10 6 0 10 -4 10 -10z m823 3 c-7 -2 -19 -2 -25 0 -7 3 -2 5 12 5 14 0 19 -2
13 -5z m84 -9 c-3 -3 -12 -4 -19 -1 -8 3 -5 6 6 6 11 1 17 -2 13 -5z m-2977
-8 c0 -3 -4 -8 -10 -11 -5 -3 -10 -1 -10 4 0 6 5 11 10 11 6 0 10 -2 10 -4z
m2740 0 c0 -2 -9 -6 -20 -9 -11 -3 -20 -1 -20 4 0 5 9 9 20 9 11 0 20 -2 20
-4z m155 -6 c-3 -5 -14 -10 -23 -10 -15 0 -15 2 -2 10 20 13 33 13 25 0z
m-2221 -39 c28 -31 14 -25 -25 10 -19 17 -25 26 -14 21 11 -6 29 -20 39 -31z
m1296 29 c0 -5 -2 -10 -4 -10 -3 0 -8 5 -11 10 -3 6 -1 10 4 10 6 0 11 -4 11
-10z m40 0 c0 -5 -4 -10 -10 -10 -5 0 -10 5 -10 10 0 6 5 10 10 10 6 0 10 -4
10 -10z m70 0 c0 -5 -4 -10 -10 -10 -5 0 -10 5 -10 10 0 6 5 10 10 10 6 0 10
-4 10 -10z m630 -22 c0 -4 -5 -10 -12 -14 -7 -4 -8 -3 -4 4 4 7 3 12 -3 12 -5
0 -12 -10 -14 -22 -3 -13 -4 -7 -4 13 1 33 3 36 19 25 10 -6 18 -14 18 -18z
m-660 18 c0 -2 -7 -6 -15 -10 -8 -3 -15 -1 -15 4 0 6 7 10 15 10 8 0 15 -2 15
-4z m770 -22 c0 -2 -13 -4 -30 -4 -16 0 -30 4 -30 8 0 5 14 7 30 4 17 -2 30
-6 30 -8z m99 7 c10 -6 1 -9 -27 -8 -23 1 -42 5 -42 10 0 10 52 9 69 -2z
m-1862 -38 c-3 -10 -5 -4 -5 12 0 17 2 24 5 18 2 -7 2 -21 0 -30z m838 27 c3
-5 1 -10 -4 -10 -6 0 -11 5 -11 10 0 6 2 10 4 10 3 0 8 -4 11 -10z m85 0 c0
-5 -4 -10 -10 -10 -5 0 -10 5 -10 10 0 6 5 10 10 10 6 0 10 -4 10 -10z m27
-12 c-3 -8 -6 -5 -6 6 -1 11 2 17 5 13 3 -3 4 -12 1 -19z m763 -2 c0 -3 -4 -8
-10 -11 -5 -3 -10 -1 -10 4 0 6 5 11 10 11 6 0 10 -2 10 -4z m223 -3 c-7 -2
-21 -2 -30 0 -10 3 -4 5 12 5 17 0 24 -2 18 -5z m-1013 -16 c0 -8 -7 -14 -15
-14 -11 0 -12 4 -4 14 6 7 13 13 15 13 2 0 4 -6 4 -13z m-1237 -39 c23 -24 42
-45 42 -48 0 -3 10 -19 23 -37 12 -17 22 -36 22 -42 0 -6 3 -11 8 -11 10 0 61
-135 70 -190 7 -38 9 -41 16 -22 7 22 26 31 26 12 0 -5 -4 -10 -9 -10 -6 0
-11 -19 -13 -42 -3 -42 -4 -41 -32 47 -34 106 -122 279 -172 341 -46 56 -36
57 19 2z m2010 2 c-6 -22 -7 -23 -14 -4 -7 16 -8 17 -8 2 -1 -10 -5 -18 -10
-18 -5 0 -7 9 -4 21 3 12 11 18 19 15 8 -3 14 0 14 6 0 6 2 9 5 7 2 -3 1 -16
-2 -29z m57 26 c0 -2 -9 -6 -20 -9 -11 -3 -20 -1 -20 4 0 5 9 9 20 9 11 0 20
-2 20 -4z m90 -6 c0 -5 -10 -10 -22 -9 -22 0 -22 1 -3 9 11 5 21 9 23 9 1 1 2
-3 2 -9z m-965 -10 c3 -5 1 -10 -4 -10 -6 0 -11 5 -11 10 0 6 2 10 4 10 3 0 8
-4 11 -10z m-868 -32 c-3 -7 -5 -2 -5 12 0 14 2 19 5 13 2 -7 2 -19 0 -25z
m923 21 c0 -5 -9 -9 -20 -9 -11 0 -20 4 -20 8 0 4 9 8 20 9 11 1 20 -2 20 -8z
m-10 -23 c0 -3 -4 -8 -10 -11 -5 -3 -10 -1 -10 4 0 6 5 11 10 11 6 0 10 -2 10
-4z m-30 -26 c0 -5 -4 -10 -10 -10 -5 0 -10 5 -10 10 0 6 5 10 10 10 6 0 10
-4 10 -10z m-35 -10 c3 -5 1 -10 -4 -10 -6 0 -11 5 -11 10 0 6 2 10 4 10 3 0
8 -4 11 -10z m65 -13 c0 -13 5 -28 12 -35 9 -9 9 -12 1 -12 -14 0 -18 7 -27
43 -4 16 -2 27 4 27 5 0 10 -10 10 -23z m-25 -25 c-8 -8 -25 10 -19 20 4 6 9
5 15 -3 4 -7 6 -15 4 -17z m-868 -4 c-3 -8 -6 -5 -6 6 -1 11 2 17 5 13 3 -3 4
-12 1 -19z m878 -18 c3 -5 -1 -10 -10 -10 -9 0 -13 5 -10 10 3 6 8 10 10 10 2
0 7 -4 10 -10z m5 -30 c0 -5 -4 -10 -10 -10 -5 0 -10 5 -10 10 0 6 5 10 10 10
6 0 10 -4 10 -10z m-30 -4 c0 -3 -4 -8 -10 -11 -5 -3 -10 -1 -10 4 0 6 5 11
10 11 6 0 10 -2 10 -4z m-833 -28 c-3 -8 -6 -5 -6 6 -1 11 2 17 5 13 3 -3 4
-12 1 -19z m863 -13 c0 -14 -4 -25 -9 -25 -4 0 -6 11 -3 25 2 14 6 25 8 25 2
0 4 -11 4 -25z m-33 -42 c1 -24 1 -25 -7 -8 -11 26 -12 35 -2 35 4 0 8 -12 9
-27z m37 -14 c-3 -5 -10 -7 -15 -3 -5 3 -7 10 -3 15 3 5 10 7 15 3 5 -3 7 -10
3 -15z m10 -41 c3 -13 6 -27 6 -32 0 -12 -8 -5 -10 9 -1 6 -6 18 -11 28 -6 10
-6 17 -1 17 6 0 12 -10 16 -22z m-2494 -64 c0 -4 -11 3 -25 16 -13 12 -22 27
-19 32 6 9 44 -33 44 -48z m2470 46 c0 -5 -2 -10 -4 -10 -3 0 -8 5 -11 10 -3
6 -1 10 4 10 6 0 11 -4 11 -10z m-25 -30 c3 -5 1 -10 -4 -10 -6 0 -11 5 -11
10 0 6 2 10 4 10 3 0 8 -4 11 -10z m32 -12 c-3 -8 -6 -5 -6 6 -1 11 2 17 5 13
3 -3 4 -12 1 -19z m27 -61 c11 -8 16 -21 13 -33 -4 -17 -5 -16 -6 4 -1 20 -16
28 -44 23 -5 -1 -6 3 -2 9 8 13 18 13 39 -3z m856 -17 c0 -5 -2 -10 -4 -10 -3
0 -8 5 -11 10 -3 6 -1 10 4 10 6 0 11 -4 11 -10z m120 -6 c0 -2 -7 -4 -15 -4
-8 0 -15 4 -15 10 0 5 7 7 15 4 8 -4 15 -8 15 -10z m-990 -4 c0 -5 -4 -10 -10
-10 -5 0 -10 5 -10 10 0 6 5 10 10 10 6 0 10 -4 10 -10z m1053 -7 c-7 -2 -19
-2 -25 0 -7 3 -2 5 12 5 14 0 19 -2 13 -5z m-977 -28 c-11 -8 -22 -12 -25 -9
-6 6 19 24 34 24 6 -1 1 -7 -9 -15z m-41 -5 c3 -5 1 -10 -4 -10 -6 0 -11 5
-11 10 0 6 2 10 4 10 3 0 8 -4 11 -10z m842 -14 c-4 -9 1 -15 11 -15 39 -1 52
-5 52 -14 0 -5 -7 -7 -15 -3 -8 3 -15 1 -15 -4 0 -6 -10 -10 -22 -9 -22 0 -22
1 -3 9 19 8 19 9 -4 9 -16 1 -21 5 -17 16 3 8 1 15 -4 15 -6 0 -11 -8 -11 -17
-1 -17 -2 -17 -6 0 -2 9 -9 15 -14 12 -5 -4 -9 -1 -9 4 0 6 14 11 31 11 23 0
30 -4 26 -14z m-187 -22 c0 -10 -6 -14 -15 -10 -19 7 -19 -1 -1 -19 12 -12 16
-12 25 -1 6 7 9 20 5 29 -5 13 0 14 31 7 43 -10 62 -23 23 -16 -21 3 -32 -2
-50 -24 l-22 -28 -23 26 -23 27 23 12 c28 16 27 16 27 -3z m-620 -4 c0 -5 -4
-10 -10 -10 -5 0 -10 5 -10 10 0 6 5 10 10 10 6 0 10 -4 10 -10z m910 -6 c0
-2 -7 -4 -15 -4 -8 0 -15 4 -15 10 0 5 7 7 15 4 8 -4 15 -8 15 -10z m-170 -4
c0 -5 -2 -10 -4 -10 -3 0 -8 5 -11 10 -3 6 -1 10 4 10 6 0 11 -4 11 -10z m23
-15 c-3 -9 -8 -14 -10 -11 -3 3 -2 9 2 15 9 16 15 13 8 -4z m182 -13 c-3 -3
-11 0 -18 7 -9 10 -8 11 6 5 10 -3 15 -9 12 -12z m-145 -8 c0 -2 -7 -4 -15 -4
-8 0 -15 4 -15 10 0 5 7 7 15 4 8 -4 15 -8 15 -10z m-3393 -56 c-2 -13 -4 -3
-4 22 0 25 2 35 4 23 2 -13 2 -33 0 -45z m3430 56 c-3 -3 -12 -4 -19 -1 -8 3
-5 6 6 6 11 1 17 -2 13 -5z m-247 -19 c-7 -9 -15 -13 -19 -10 -3 3 1 10 9 15
21 14 24 12 10 -5z m80 5 c0 -5 -2 -10 -4 -10 -3 0 -8 5 -11 10 -3 6 -1 10 4
10 6 0 11 -4 11 -10z m25 0 c3 -5 1 -10 -4 -10 -6 0 -11 5 -11 10 0 6 2 10 4
10 3 0 8 -4 11 -10z m195 0 c0 -5 -5 -10 -11 -10 -5 0 -7 5 -4 10 3 6 8 10 11
10 2 0 4 -4 4 -10z m93 -7 c-7 -2 -19 -2 -25 0 -7 3 -2 5 12 5 14 0 19 -2 13
-5z m-943 -13 c0 -5 -4 -10 -10 -10 -5 0 -10 5 -10 10 0 6 5 10 10 10 6 0 10
-4 10 -10z m584 -23 c7 -6 6 -7 -4 -4 -8 2 -16 12 -17 23 -2 13 -1 15 4 4 3
-8 11 -19 17 -23z m439 26 c-7 -2 -19 -2 -25 0 -7 3 -2 5 12 5 14 0 19 -2 13
-5z m-928 -13 c-3 -5 -11 -10 -16 -10 -6 0 -7 5 -4 10 3 6 11 10 16 10 6 0 7
-4 4 -10z m-65 -10 c0 -5 -5 -10 -11 -10 -5 0 -7 5 -4 10 3 6 8 10 11 10 2 0
4 -4 4 -10z m130 -10 c0 -5 3 -16 7 -26 6 -16 5 -17 -9 -4 -9 8 -14 18 -11 23
2 4 -1 7 -6 7 -6 0 -11 4 -11 10 0 5 7 7 15 4 8 -4 15 -10 15 -14z m387 3 c4
-10 11 -22 17 -26 7 -6 4 -7 -6 -3 -12 3 -18 0 -18 -9 0 -8 -4 -15 -10 -15 -5
0 -10 4 -10 9 0 6 5 13 10 16 17 11 12 35 -7 28 -11 -4 -14 -3 -9 5 10 17 26
15 33 -5z m73 -15 c0 -12 -3 -18 -7 -14 -10 10 -11 46 -1 40 4 -3 8 -15 8 -26z
m40 28 c0 -2 -7 -6 -15 -10 -8 -3 -15 -1 -15 4 0 6 7 10 15 10 8 0 15 -2 15
-4z m-447 -28 c-6 -7 -13 -22 -16 -33 -4 -18 -5 -18 -6 3 0 13 5 29 12 36 15
17 24 11 10 -6z m-103 2 c0 -5 -5 -10 -11 -10 -5 0 -7 5 -4 10 3 6 8 10 11 10
2 0 4 -4 4 -10z m373 -5 c-3 -9 -8 -14 -10 -11 -3 3 -2 9 2 15 9 16 15 13 8
-4z m308 -8 c-10 -9 -11 -8 -5 6 3 10 9 15 12 12 3 -3 0 -11 -7 -18z m-131 3
c0 -5 -7 -7 -15 -4 -8 4 -15 8 -15 10 0 2 7 4 15 4 8 0 15 -4 15 -10z m-520
-21 c0 -6 -4 -7 -10 -4 -5 3 -10 11 -10 16 0 6 5 7 10 4 6 -3 10 -11 10 -16z
m120 7 c0 -8 -5 -18 -12 -22 -6 -4 -8 -3 -4 4 3 6 2 13 -4 17 -5 3 -10 -1 -10
-9 0 -9 -4 -16 -9 -16 -5 0 -7 9 -4 20 6 23 43 28 43 6z m-2883 -33 c-3 -10
-5 -4 -5 12 0 17 2 24 5 18 2 -7 2 -21 0 -30z m1030 -55 c-2 -18 -4 -4 -4 32
0 36 2 50 4 33 2 -18 2 -48 0 -65z m1963 72 c-20 -13 -40 -12 -40 1 0 6 7 9
15 6 8 -4 17 -2 21 4 3 6 9 8 12 4 4 -3 0 -10 -8 -15z m340 10 c0 -5 -5 -10
-11 -10 -5 0 -7 5 -4 10 3 6 8 10 11 10 2 0 4 -4 4 -10z m-420 -10 c0 -5 -4
-10 -10 -10 -5 0 -10 5 -10 10 0 6 5 10 10 10 6 0 10 -4 10 -10z m25 0 c3 -5
1 -10 -4 -10 -6 0 -11 5 -11 10 0 6 2 10 4 10 3 0 8 -4 11 -10z m165 0 c0 -5
-4 -10 -10 -10 -5 0 -10 5 -10 10 0 6 5 10 10 10 6 0 10 -4 10 -10z m30 0 c0
-5 -2 -10 -4 -10 -3 0 -8 5 -11 10 -3 6 -1 10 4 10 6 0 11 -4 11 -10z m-300
-34 c0 -2 -7 -6 -15 -10 -8 -3 -15 -1 -15 4 0 6 7 10 15 10 8 0 15 -2 15 -4z
m37 -18 c-3 -8 -6 -5 -6 6 -1 11 2 17 5 13 3 -3 4 -12 1 -19z m173 2 c0 -5 -2
-10 -4 -10 -3 0 -8 5 -11 10 -3 6 -1 10 4 10 6 0 11 -4 11 -10z m-80 -14 c0
-3 -4 -8 -10 -11 -5 -3 -10 -1 -10 4 0 6 5 11 10 11 6 0 10 -2 10 -4z m483
-743 c-13 -2 -33 -2 -45 0 -13 2 -3 4 22 4 25 0 35 -2 23 -4z m-2495 -24 c8
-12 19 -18 28 -15 8 3 14 -1 14 -8 0 -8 8 -17 17 -20 14 -6 15 -9 4 -15 -10
-7 -9 -10 8 -16 11 -3 21 -10 21 -14 0 -4 13 -22 30 -41 16 -18 28 -35 26 -37
-9 -9 -32 10 -43 35 -16 34 -57 59 -111 68 -41 6 -42 8 -42 45 0 31 4 39 18
39 9 0 23 -9 30 -21z m239 -79 c4 -13 3 -13 -6 0 -5 8 -13 11 -17 7 -4 -4 8
-23 26 -42 19 -19 30 -35 24 -35 -5 0 -18 10 -28 23 -10 12 -28 32 -39 44
l-20 22 28 -2 c16 -1 30 -9 32 -17z m153 -80 c0 -5 -9 -10 -20 -10 -11 0 -20
-4 -20 -9 0 -5 -10 -7 -21 -4 -19 5 -18 7 12 18 45 16 49 17 49 5z m-410 -21
c0 -14 -17 -10 -23 5 -4 10 -1 13 9 9 7 -3 14 -9 14 -14z m150 -8 c0 -5 -7
-11 -15 -15 -15 -5 -20 5 -8 17 9 10 23 9 23 -2z m-74 -11 c19 0 34 -4 34 -8
0 -11 -87 1 -98 13 -4 5 1 5 11 2 10 -4 34 -7 53 -7z m209 -10 c3 -6 -1 -7 -9
-4 -18 7 -21 14 -7 14 6 0 13 -4 16 -10z m492 -1097 c23 -21 60 -54 84 -73 23
-19 65 -54 93 -78 27 -23 87 -60 133 -82 46 -22 83 -44 83 -50 0 -18 -88 -2
-150 27 -61 28 -180 112 -180 127 0 5 -3 6 -6 3 -4 -4 -20 10 -36 31 -16 20
-35 45 -43 54 -20 24 -65 96 -65 104 0 10 43 -21 87 -63z m256 -80 c-7 -2 -19
-2 -25 0 -7 3 -2 5 12 5 14 0 19 -2 13 -5z m214 -15 c-3 -8 -6 -5 -6 6 -1 11
2 17 5 13 3 -3 4 -12 1 -19z m-209 -5 c-10 -2 -26 -2 -35 0 -10 3 -2 5 17 5
19 0 27 -2 18 -5z m343 -207 c-31 -33 -143 -84 -127 -58 3 5 19 12 35 15 16 3
35 12 42 19 17 16 62 48 68 48 2 0 -6 -11 -18 -24z"/>
<path d="M3070 9375 c-24 -25 -42 -45 -39 -45 3 0 25 20 49 45 24 25 42 45 39
45 -3 0 -25 -20 -49 -45z"/>
<path d="M3914 9358 l-19 -23 23 19 c21 18 27 26 19 26 -2 0 -12 -10 -23 -22z"/>
<path d="M3100 9290 c-14 -11 -20 -20 -14 -20 14 0 50 27 44 33 -3 3 -16 -3
-30 -13z"/>
<path d="M3786 9204 c-23 -50 -16 -52 12 -3 12 21 19 39 14 39 -4 0 -16 -16
-26 -36z"/>
<path d="M3826 9145 c-24 -37 -20 -63 10 -71 21 -5 31 -2 45 17 23 30 24 42 1
62 -25 23 -37 21 -56 -8z"/>
<path d="M3468 8976 c-32 -40 -34 -51 -13 -72 23 -23 75 10 75 47 0 21 -21 59
-33 59 -1 0 -14 -16 -29 -34z"/>
<path d="M5233 8541 c0 -11 5 -17 9 -15 11 7 10 34 -1 34 -6 0 -9 -9 -8 -19z"/>
<path d="M5070 8510 c0 -5 5 -10 11 -10 5 0 7 5 4 10 -3 6 -8 10 -11 10 -2 0
-4 -4 -4 -10z"/>
<path d="M5350 8475 c0 -8 2 -15 4 -15 2 0 6 7 10 15 3 8 1 15 -4 15 -6 0 -10
-7 -10 -15z"/>
<path d="M5490 8471 c0 -9 33 -21 58 -21 6 0 12 5 12 10 0 6 -3 9 -7 9 -5 -1
-10 -1 -13 1 -20 7 -50 8 -50 1z"/>
<path d="M5470 8421 c0 -6 -9 -11 -20 -11 -11 0 -20 -4 -20 -9 0 -10 48 -2 55
10 3 4 1 10 -5 14 -5 3 -10 1 -10 -4z"/>
<path d="M3740 8390 c0 -5 5 -10 10 -10 6 0 10 5 10 10 0 6 -4 10 -10 10 -5 0
-10 -4 -10 -10z"/>
<path d="M5850 8387 c0 -4 20 -6 45 -5 25 0 45 5 45 9 0 4 -20 7 -45 6 -25 -1
-45 -5 -45 -10z"/>
<path d="M5950 8388 c0 -4 4 -8 9 -8 6 0 12 4 15 8 3 5 -1 9 -9 9 -8 0 -15 -4
-15 -9z"/>
<path d="M5835 8361 c-11 -5 -25 -6 -31 -4 -7 2 -15 -1 -19 -6 -3 -6 -10 -9
-15 -6 -5 3 -27 8 -49 11 -37 5 -41 4 -41 -16 0 -16 -4 -20 -15 -16 -20 7 -19
1 2 -24 21 -24 55 -28 47 -5 -5 12 -10 13 -20 4 -10 -8 -14 -8 -14 0 0 6 3 11
8 12 4 0 15 2 24 4 18 3 45 -21 34 -32 -3 -3 -6 -1 -6 5 0 7 -4 12 -10 12 -5
0 -7 -7 -4 -15 4 -8 2 -15 -3 -15 -5 0 -10 -7 -10 -15 0 -12 5 -11 19 5 15 16
33 20 86 21 37 1 71 1 75 0 5 -1 6 3 3 8 -3 5 -22 8 -41 6 -20 -2 -35 1 -35 7
0 6 9 8 19 5 10 -2 25 -1 32 4 9 6 -5 9 -38 9 -38 0 -55 -4 -61 -16 -8 -15
-10 -15 -15 0 -4 10 -3 15 3 11 6 -3 10 -2 10 3 0 5 44 14 98 19 92 10 93 11
22 8 -41 -1 -65 0 -52 2 12 2 22 9 22 14 0 5 -1 9 -2 8 -2 0 -12 -4 -23 -8z
m-115 -23 c0 -4 -7 -8 -15 -8 -8 0 -15 4 -15 8 0 5 7 9 15 9 8 0 15 -4 15 -9z
m40 -4 c0 -2 -7 -4 -15 -4 -8 0 -15 4 -15 10 0 5 7 7 15 4 8 -4 15 -8 15 -10z
m50 -36 c0 -4 -7 -8 -15 -8 -8 0 -15 4 -15 8 0 5 7 9 15 9 8 0 15 -4 15 -9z"/>
<path d="M5888 8363 c12 -2 30 -2 40 0 9 3 -1 5 -23 4 -22 0 -30 -2 -17 -4z"/>
<path d="M5575 8312 c-4 -12 -3 -13 10 -2 12 10 15 10 15 -3 0 -8 -6 -18 -12
-20 -7 -3 2 -6 21 -6 25 -1 32 -5 27 -16 -6 -16 3 -19 28 -9 9 3 13 11 10 16
-4 6 -9 6 -14 -2 -6 -9 -10 -6 -15 9 -4 14 -12 20 -21 17 -8 -3 -14 -1 -14 4
0 6 7 10 15 10 28 0 15 15 -14 16 -18 1 -32 -4 -36 -14z"/>
<path d="M5890 8321 c0 -6 4 -12 8 -15 5 -3 9 1 9 9 0 8 -4 15 -9 15 -4 0 -8
-4 -8 -9z"/>
<path d="M5933 8323 c9 -2 23 -2 30 0 6 3 -1 5 -18 5 -16 0 -22 -2 -12 -5z"/>
<path d="M4920 8300 c0 -5 5 -10 11 -10 5 0 7 5 4 10 -3 6 -8 10 -11 10 -2 0
-4 -4 -4 -10z"/>
<path d="M5938 8303 c6 -2 18 -2 25 0 6 3 1 5 -13 5 -14 0 -19 -2 -12 -5z"/>
<path d="M5928 8283 c6 -2 18 -2 25 0 6 3 1 5 -13 5 -14 0 -19 -2 -12 -5z"/>
<path d="M4925 8270 c3 -5 8 -10 11 -10 2 0 4 5 4 10 0 6 -5 10 -11 10 -5 0
-7 -4 -4 -10z"/>
<path d="M5691 8254 c0 -11 3 -14 6 -6 3 7 2 16 -1 19 -3 4 -6 -2 -5 -13z"/>
<path d="M5760 8260 c-1 -8 -3 -23 -5 -32 -2 -11 2 -15 12 -11 12 5 12 7 1 14
-13 9 22 14 67 11 15 -2 17 0 6 7 -11 7 -10 10 5 14 10 2 3 4 -17 3 -21 -1
-35 -4 -32 -8 2 -5 -2 -8 -11 -8 -8 0 -17 6 -19 13 -4 8 -6 7 -7 -3z"/>
<path d="M5878 8263 c6 -2 12 -11 12 -19 0 -8 7 -14 15 -14 12 0 12 3 -2 20
-10 11 -22 20 -28 19 -5 0 -4 -3 3 -6z"/>
<path d="M5656 8237 c-16 -12 -16 -13 7 -13 16 0 23 4 20 13 -3 7 -6 13 -7 13
-1 0 -10 -6 -20 -13z"/>
<path d="M5800 8230 c-13 -8 -12 -10 3 -10 9 0 17 5 17 10 0 12 -1 12 -20 0z"/>
<path d="M5557 8189 c7 -7 15 -10 18 -7 3 3 -2 9 -12 12 -14 6 -15 5 -6 -5z"/>
<path d="M5664 8187 c3 -10 6 -21 6 -23 0 -3 5 -2 10 1 6 3 10 -1 10 -10 0
-11 5 -15 15 -11 8 3 19 -2 24 -12 6 -9 11 -12 11 -5 0 15 29 10 41 -8 7 -11
9 -9 9 8 0 16 -5 21 -20 18 -25 -5 -34 10 -20 32 10 16 10 15 5 -4 -5 -18 -2
-20 15 -16 11 3 20 10 20 15 0 5 -4 6 -10 3 -5 -3 -10 -2 -10 4 0 5 28 12 63
14 l62 3 -76 2 c-76 2 -77 2 -84 -25 -5 -21 -8 -24 -16 -12 -7 12 -9 12 -10
-1 0 -8 -7 -1 -14 15 -8 17 -14 23 -15 15 0 -13 -2 -13 -11 0 -9 12 -10 12 -5
-3z"/>
<path d="M5802 8155 c0 -16 2 -22 5 -12 2 9 2 23 0 30 -3 6 -5 -1 -5 -18z"/>
<path d="M5838 8152 c-3 -24 0 -28 21 -30 24 -2 24 -2 5 13 -14 11 -15 14 -4
15 13 0 13 1 0 11 -12 8 -9 9 13 5 15 -4 27 -3 27 2 0 4 -13 9 -29 10 -25 2
-29 -2 -33 -26z"/>
<path d="M5665 8140 c-3 -5 -1 -10 4 -10 6 0 11 5 11 10 0 6 -2 10 -4 10 -3 0
-8 -4 -11 -10z"/>
<path d="M5918 8143 c7 -3 16 -2 19 1 4 3 -2 6 -13 5 -11 0 -14 -3 -6 -6z"/>
<path d="M5630 8110 c-8 -5 0 -7 18 -7 17 1 29 4 26 6 -8 9 -31 9 -44 1z"/>
<path d="M5690 8108 c0 -4 4 -8 9 -8 6 0 12 4 15 8 3 5 -1 9 -9 9 -8 0 -15 -4
-15 -9z"/>
<path d="M5727 8103 c-4 -3 -7 -15 -7 -25 0 -10 -3 -17 -7 -16 -19 5 -53 -15
-53 -30 0 -9 -2 -28 -5 -42 -3 -14 1 -8 8 13 7 21 16 35 20 31 4 -4 7 -3 7 2
0 16 58 15 74 -2 9 -8 16 -11 16 -5 0 6 5 11 11 11 5 0 7 -4 4 -10 -3 -5 -2
-10 4 -10 5 0 12 6 14 13 4 9 6 9 6 -1 1 -15 -26 -26 -81 -31 -5 -1 -8 -6 -8
-12 0 -6 7 -9 15 -5 8 3 15 0 15 -7 0 -7 5 -4 11 6 12 20 39 23 40 5 0 -7 7 3
14 22 7 19 14 27 14 18 1 -24 13 -29 47 -18 l29 10 -32 -5 c-28 -4 -33 -1 -33
15 0 16 4 18 23 11 14 -6 30 -6 38 0 10 6 5 9 -18 9 -18 0 -33 4 -33 9 0 4 16
7 36 6 19 -1 38 3 41 8 3 5 -25 7 -66 5 -52 -3 -72 -1 -75 9 -3 7 -10 13 -16
13 -6 0 -4 -7 4 -16 9 -8 13 -20 10 -26 -4 -6 -10 -5 -15 3 -5 8 -9 10 -9 4 0
-5 -8 -1 -17 10 -13 16 -15 17 -10 3 4 -10 1 -18 -4 -18 -7 0 -9 11 -7 25 6
27 5 29 -5 18z m123 -43 c0 -5 -10 -10 -22 -9 -22 0 -22 1 -3 9 11 5 21 9 23
9 1 1 2 -3 2 -9z"/>
<path d="M5855 8100 c3 -5 8 -10 11 -10 2 0 4 5 4 10 0 6 -5 10 -11 10 -5 0
-7 -4 -4 -10z"/>
<path d="M5816 8088 c3 -5 10 -6 15 -3 13 9 11 12 -6 12 -8 0 -12 -4 -9 -9z"/>
<path d="M5670 8080 c0 -5 5 -10 11 -10 5 0 7 5 4 10 -3 6 -8 10 -11 10 -2 0
-4 -4 -4 -10z"/>
<path d="M5635 8020 c-3 -5 -1 -10 4 -10 6 0 11 5 11 10 0 6 -2 10 -4 10 -3 0
-8 -4 -11 -10z"/>
<path d="M5680 8008 c0 -5 12 -5 28 -2 39 10 41 15 4 12 -18 -1 -32 -6 -32
-10z"/>
<path d="M4960 8003 c5 -2 8 -9 5 -13 -3 -5 0 -12 6 -15 7 -5 10 -1 7 10 -1
10 -9 20 -16 21 -7 1 -8 0 -2 -3z"/>
<path d="M5873 7992 c-13 -2 -23 -7 -23 -11 0 -9 68 -2 74 8 5 7 -15 8 -51 3z"/>
<path d="M5705 7980 c3 -5 8 -10 11 -10 2 0 4 5 4 10 0 6 -5 10 -11 10 -5 0
-7 -4 -4 -10z"/>
<path d="M5780 7980 c0 -5 5 -10 10 -10 6 0 10 5 10 10 0 6 -4 10 -10 10 -5 0
-10 -4 -10 -10z"/>
<path d="M5690 7963 c0 -2 6 -11 14 -18 12 -12 15 -12 19 -1 3 8 -2 16 -14 19
-10 3 -19 3 -19 0z"/>
<path d="M5536 7915 c-9 -26 -7 -32 5 -12 6 10 9 21 6 23 -2 3 -7 -2 -11 -11z"/>
<path d="M5998 7923 c7 -3 16 -2 19 1 4 3 -2 6 -13 5 -11 0 -14 -3 -6 -6z"/>
<path d="M5000 7884 c0 -9 6 -14 13 -11 6 2 17 -3 23 -11 8 -12 12 -11 25 4 9
11 9 15 1 10 -7 -4 -19 0 -28 8 -20 20 -34 20 -34 0z"/>
<path d="M5930 7890 c0 -6 11 -9 25 -7 36 4 38 12 5 15 -17 1 -30 -2 -30 -8z"/>
<path d="M5994 7876 c-3 -8 -15 -11 -30 -8 -13 2 -24 0 -24 -5 0 -18 49 -13
60 7 6 11 8 20 5 20 -3 0 -8 -6 -11 -14z"/>
<path d="M5476 7812 c-2 -4 4 -13 15 -20 21 -13 22 -12 13 12 -7 17 -20 21
-28 8z"/>
<path d="M6030 7740 l-55 -7 45 -1 c25 0 63 3 85 7 33 7 34 9 10 8 -16 0 -55
-3 -85 -7z"/>
<path d="M4083 7160 c0 -25 2 -35 4 -22 2 12 2 32 0 45 -2 12 -4 2 -4 -23z"/>
<path d="M4424 7148 c-4 -6 -2 -14 4 -16 11 -3 5 -33 -10 -43 -5 -3 1 -18 12
-32 17 -21 30 -27 60 -27 52 0 76 31 59 79 -6 17 -19 36 -29 41 -26 14 -87 12
-96 -2z"/>
<path d="M3030 6796 c0 -10 69 -86 73 -79 2 5 -14 25 -35 46 -21 21 -38 36
-38 33z"/>
<path d="M3205 6773 c0 -26 10 -30 19 -7 9 23 7 31 -6 31 -7 0 -13 -11 -13
-24z"/>
<path d="M3918 6623 c7 -3 16 -2 19 1 4 3 -2 6 -13 5 -11 0 -14 -3 -6 -6z"/>
<path d="M5896 6594 c-3 -9 -6 -31 -6 -51 0 -30 3 -34 18 -28 9 4 32 11 50 17
34 10 46 24 12 15 -16 -4 -20 0 -19 21 0 24 1 25 9 7 8 -18 9 -17 9 8 1 43
-25 33 -36 -15 l-11 -43 -1 43 c-1 42 -14 56 -25 26z"/>
<path d="M6156 6584 c-9 -8 -16 -28 -16 -44 0 -23 -8 -33 -45 -55 l-46 -26 7
-52 c4 -29 12 -55 18 -59 6 -4 8 -9 6 -11 -3 -2 -16 -12 -30 -21 l-25 -18 27
6 c39 9 75 -9 93 -46 12 -25 12 -29 1 -15 -22 27 -25 8 -9 -54 19 -75 8 -104
-47 -119 -43 -12 -142 -11 -135 0 2 4 -7 18 -21 31 -14 13 -33 38 -41 54 -9
17 -20 33 -25 36 -5 3 -2 12 7 19 13 11 15 9 15 -12 0 -23 58 -114 67 -104 3
2 -8 26 -23 51 -19 34 -27 59 -25 89 0 23 -6 55 -16 73 -15 28 -16 38 -5 65 8
23 9 34 1 39 -7 4 -10 24 -7 48 3 34 1 41 -14 41 -10 0 -21 0 -25 0 -4 0 -8
-7 -9 -16 -3 -19 -14 -32 -14 -16 0 7 -4 12 -10 12 -5 0 -10 -6 -10 -14 0 -8
-7 -17 -16 -20 -12 -5 -15 -16 -11 -49 7 -61 11 -81 17 -87 4 -3 12 -24 19
-48 9 -34 10 -47 0 -58 -9 -11 -8 -20 2 -42 27 -53 64 -102 82 -108 20 -6 22
-25 5 -43 -11 -10 -8 -10 13 -2 15 5 35 8 45 6 11 -1 26 5 34 15 10 13 32 19
70 22 64 4 79 -11 33 -31 -34 -15 -39 -26 -49 -114 -5 -40 -3 -57 5 -57 6 0
11 -15 11 -33 0 -56 30 -124 76 -176 24 -27 44 -58 44 -69 0 -11 3 -33 6 -50
5 -27 12 -32 47 -38 38 -6 43 -4 69 26 31 38 49 40 236 27 80 -6 112 -5 107 2
-3 6 0 11 7 11 8 0 9 3 3 8 -20 15 -9 38 31 64 36 23 72 58 48 46 -103 -49
-106 -50 -178 -44 -39 3 -79 6 -88 7 -10 0 -18 4 -18 9 0 12 78 47 123 55 34
7 48 19 29 27 -5 2 -32 35 -61 73 -29 39 -55 72 -57 74 -9 10 -32 -22 -27 -36
5 -12 3 -14 -7 -8 -8 5 -35 7 -61 6 -43 -2 -54 2 -121 52 -40 30 -81 63 -91
74 -20 23 -40 83 -27 83 5 0 9 8 8 18 0 9 10 44 23 77 12 33 25 87 29 120 6
47 20 82 65 163 43 76 55 106 47 114 -8 8 -14 4 -21 -15 -12 -31 -27 -35 -35
-9 -4 11 -15 18 -28 18 -25 -1 -55 44 -37 55 7 4 4 9 -6 13 -22 8 -21 8 -39
-10z m27 -24 c3 -11 1 -20 -4 -20 -5 0 -9 9 -9 20 0 11 2 20 4 20 2 0 6 -9 9
-20z m15 -59 c9 -5 29 -14 44 -21 24 -11 25 -15 16 -41 -13 -38 -25 -45 -21
-11 3 19 -2 31 -16 40 -17 10 -21 10 -21 -2 0 -8 5 -16 11 -18 7 -2 7 -12 -1
-32 -9 -25 -12 -27 -28 -15 -15 13 -16 12 -3 -4 19 -23 7 -33 -27 -21 -22 8
-27 16 -27 44 -1 19 -4 40 -8 47 -4 7 1 14 13 18 11 3 20 11 20 16 0 11 25 12
48 0z m-361 -113 c-3 -7 -5 -2 -5 12 0 14 2 19 5 13 2 -7 2 -19 0 -25z m7 -53
c-4 -8 -10 -13 -15 -10 -4 3 -6 12 -3 20 4 8 10 13 15 10 4 -3 6 -12 3 -20z
m35 -38 c1 -10 -3 -15 -9 -12 -5 3 -10 21 -9 38 0 27 2 29 9 12 5 -11 9 -28 9
-38z m281 -124 c-11 -17 -11 -17 -6 0 3 10 7 26 7 35 1 15 2 15 6 0 2 -10 -1
-25 -7 -35z m212 -400 c29 -51 51 -134 39 -146 -14 -14 -33 11 -54 72 -25 75
-29 101 -14 101 7 0 20 -12 29 -27z m148 -36 c0 -13 -25 16 -39 43 -11 22 -9
21 13 -5 14 -16 25 -34 26 -38z"/>
<path d="M6156 6471 c-18 -20 -21 -41 -6 -41 6 0 10 7 10 15 0 8 7 15 15 15
16 0 20 16 6 24 -4 3 -16 -3 -25 -13z"/>
<path d="M4008 6503 c7 -3 16 -2 19 1 4 3 -2 6 -13 5 -11 0 -14 -3 -6 -6z"/>
<path d="M5684 6442 c-42 -31 -84 -46 -84 -30 0 21 -127 -36 -134 -60 -8 -24
-3 -37 14 -37 8 0 16 -10 18 -22 2 -13 -1 -23 -7 -23 -6 0 -11 -8 -11 -17 0
-15 -2 -16 -10 -3 -11 18 -11 17 -38 -92 l-20 -76 26 4 c14 3 29 7 34 10 4 3
8 0 8 -6 0 -6 5 -8 12 -4 6 4 9 3 5 -2 -3 -5 2 -25 10 -44 16 -35 16 -35 24
-10 4 15 5 -2 2 -40 -5 -64 -4 -65 24 -82 37 -22 65 -17 80 13 l12 24 7 -33
c4 -18 15 -37 25 -43 11 -5 19 -19 19 -29 0 -13 7 -20 20 -20 11 0 20 5 20 11
0 5 -6 7 -12 3 -9 -6 -9 -3 1 9 8 10 12 33 9 57 l-4 40 41 0 c22 0 47 5 55 10
11 7 5 10 -23 10 -49 0 -98 25 -91 45 4 8 14 15 24 15 10 0 23 7 30 15 7 8 9
15 4 15 -4 0 1 6 11 14 18 13 18 14 1 42 l-19 28 -22 -26 c-13 -15 -25 -33
-28 -40 -2 -7 -8 -10 -12 -6 -10 9 35 98 53 105 6 3 12 13 12 22 0 10 -15 0
-40 -29 -22 -25 -40 -41 -40 -36 0 6 -6 2 -13 -8 -10 -13 -20 -16 -35 -12 -12
4 -22 11 -22 16 0 5 7 7 15 4 8 -4 22 -1 30 6 8 6 18 9 23 6 12 -7 46 64 45
95 -2 39 -23 109 -33 109 -18 0 -15 37 7 79 13 24 22 46 20 48 -2 2 -21 -10
-43 -25z m-154 -211 c0 -18 -18 -21 -30 -6 -10 13 -9 15 9 15 11 0 21 -4 21
-9z m63 -35 c4 -9 -4 -11 -24 -8 -39 6 -44 17 -9 19 16 1 30 -4 33 -11z m14
-58 c-3 -7 -5 -2 -5 12 0 14 2 19 5 13 2 -7 2 -19 0 -25z m-6 -207 c-6 -10 -7
-21 -4 -25 3 -3 1 -6 -5 -6 -7 0 -12 11 -12 25 0 16 6 25 15 25 12 0 13 -4 6
-19z m76 -43 c-3 -7 -5 -2 -5 12 0 14 2 19 5 13 2 -7 2 -19 0 -25z"/>
<path d="M6010 6242 c-19 -6 -50 -33 -50 -43 0 -4 17 -13 37 -18 44 -12 66 1
57 36 -7 24 -21 33 -44 25z m24 -37 c6 -16 -3 -19 -28 -9 -22 8 -20 24 3 24
10 0 21 -7 25 -15z"/>
<path d="M2826 6049 c-244 -15 -334 -60 -551 -274 -89 -87 -174 -243 -200
-365 -53 -245 -13 -502 105 -670 27 -39 41 -94 41 -157 -2 -101 11 -263 20
-263 5 0 9 -17 8 -37 -1 -34 -2 -35 -9 -13 -8 25 -8 25 -11 -5 -1 -16 -5 27
-9 98 -8 156 -11 161 -139 229 -104 54 -104 40 -1 -28 36 -23 70 -51 76 -61 6
-10 10 -61 10 -113 l-1 -95 -30 -5 c-28 -5 -30 -9 -33 -53 -2 -30 1 -47 8 -47
8 0 9 -11 5 -31 -5 -20 -3 -29 3 -25 5 3 12 -8 14 -24 3 -18 0 -30 -7 -30 -13
0 -45 -36 -45 -51 0 -5 5 -7 10 -4 6 3 10 2 10 -3 0 -5 15 -16 33 -23 17 -7
38 -21 45 -32 8 -10 24 -17 35 -16 37 2 45 0 50 -20 4 -16 1 -18 -22 -11 -62
19 -353 124 -372 135 -8 4 2 -7 21 -24 19 -17 38 -31 42 -31 3 0 4 -17 1 -37
-3 -21 -1 -62 5 -91 8 -46 7 -54 -9 -62 -26 -14 -28 -60 -5 -95 23 -34 55 -65
68 -65 5 0 7 -4 4 -9 -7 -11 56 -38 187 -81 70 -23 102 -39 113 -56 9 -14 30
-26 50 -30 51 -9 41 -20 -20 -20 -30 0 -61 -6 -69 -13 -10 -8 -17 -9 -22 -1
-4 6 -59 10 -148 9 l-142 -1 50 -16 c46 -14 48 -16 25 -23 -14 -4 -61 -8 -105
-9 -59 -2 -72 -4 -50 -10 17 -4 23 -8 14 -9 -24 -2 -39 -45 -39 -112 0 -42 -4
-61 -14 -65 -32 -12 -49 -129 -23 -156 20 -21 20 -56 0 -61 -13 -3 -11 -5 7
-6 18 -1 21 -4 11 -10 -10 -6 -4 -12 23 -22 29 -11 35 -17 30 -34 -3 -11 -13
-26 -22 -33 -14 -11 -15 -14 -3 -21 11 -7 119 -44 171 -58 12 -3 11 -7 -5 -15
-11 -6 -22 -12 -23 -14 -2 -1 -6 -73 -8 -158 -3 -139 -2 -156 14 -165 9 -6 13
-11 7 -11 -5 0 -3 -5 5 -11 12 -8 11 -9 -5 -7 -12 2 -19 -2 -18 -10 2 -6 -5
-12 -16 -12 -24 0 -149 -63 -181 -92 -112 -101 -181 -265 -196 -468 -23 -312
169 -645 447 -775 l54 -25 -47 0 -48 0 0 -40 0 -40 -40 0 c-42 0 -50 -9 -26
-29 23 -19 73 -30 152 -32 41 -1 74 -5 74 -10 0 -4 33 -9 73 -12 39 -2 119 -9
177 -15 125 -14 186 -19 390 -32 365 -24 655 -50 1010 -91 96 -11 234 -26 305
-34 72 -8 231 -22 355 -30 124 -8 290 -19 370 -24 80 -6 240 -15 355 -21 116
-6 291 -15 390 -21 208 -13 405 -6 658 22 206 23 276 42 122 33 -141 -8 -245
-8 -282 0 l-32 7 4 75 4 74 -112 1 c-143 1 -105 14 69 23 71 4 190 16 264 27
74 10 141 19 148 19 24 0 7 23 -19 27 -13 1 -103 -2 -199 -8 -222 -14 -225
-13 -234 73 -11 96 -24 136 -47 143 -34 11 -14 17 83 26 112 10 310 40 305 46
-2 2 -56 -3 -118 -11 -63 -8 -159 -17 -214 -21 -136 -9 -173 -20 -186 -52 -5
-15 -15 -63 -21 -107 -17 -133 -5 -123 -165 -128 -172 -6 -458 8 -481 22 -13
8 -7 9 27 4 28 -4 41 -3 37 4 -3 6 12 11 39 14 25 2 46 0 47 -3 5 -10 108 -19
108 -9 0 6 -7 10 -15 10 -8 0 -15 9 -15 19 0 17 4 18 40 9 22 -6 40 -16 40
-23 0 -15 149 -32 159 -18 6 8 18 10 66 16 19 2 20 8 17 57 -2 30 -8 57 -12
60 -11 7 4 32 16 30 5 -1 10 3 12 9 2 6 -2 11 -8 11 -8 0 -10 9 -6 24 4 15 1
30 -8 38 -27 26 -52 43 -86 61 -40 20 -89 48 -105 60 -5 4 -45 25 -87 46 -64
31 -80 36 -89 25 -6 -8 -18 -14 -25 -14 -8 0 -14 -4 -14 -8 0 -5 -7 -9 -15 -9
-20 0 -14 5 69 61 39 25 76 46 84 46 7 0 47 -16 89 -35 42 -19 78 -34 80 -32
1 2 -39 23 -89 46 -182 83 -191 91 -131 116 45 19 247 55 308 55 50 0 68 16
29 26 -80 20 -337 -29 -412 -79 l-33 -22 66 -29 c36 -16 65 -33 65 -37 0 -14
-58 -31 -77 -21 -10 5 -36 8 -58 6 -84 -9 -105 -7 -123 9 -10 9 -22 17 -27 17
-5 0 0 -7 11 -15 18 -15 18 -15 -3 -8 -33 12 -32 17 15 57 49 40 45 47 -8 14
-42 -25 -81 -32 -74 -13 3 8 -4 16 -17 20 -17 6 -19 9 -8 16 12 7 11 9 -1 8
-8 0 -24 -4 -35 -9 l-20 -9 20 -1 20 -1 -20 -8 c-11 -5 -27 -6 -34 -3 -11 4
-11 7 -3 10 7 2 10 7 8 11 -3 4 11 25 30 47 60 67 68 82 54 99 -7 8 -19 15
-26 15 -8 0 -14 5 -14 10 0 19 29 10 47 -13 l17 -24 56 26 c30 14 81 32 112
41 l57 16 -35 39 c-39 44 -42 78 -8 83 l22 3 -20 41 c-11 22 -20 56 -21 74 -1
19 -5 34 -9 34 -5 0 -8 5 -8 10 0 6 -9 20 -20 32 l-20 21 6 -69 c2 -38 6 -91
8 -119 l4 -50 -19 55 c-25 72 -52 121 -111 202 -68 92 -135 140 -204 146 -98
8 -126 -34 -83 -121 26 -52 92 -157 99 -157 3 0 5 18 4 40 0 22 3 40 8 40 7 0
12 -14 10 -31 -1 -3 9 -4 22 -2 33 7 87 -80 94 -150 2 -29 1 -49 -3 -45 -4 4
-21 0 -37 -8 -28 -15 -29 -14 -43 18 l-14 33 -1 -40 c0 -23 -10 -61 -23 -85
-25 -51 -117 -130 -150 -130 -30 0 -79 28 -124 71 -47 44 -112 88 -179 122
-54 27 -75 53 -44 53 11 0 16 -5 12 -15 -4 -10 -1 -12 8 -6 9 5 11 4 6 -3 -4
-7 -1 -12 6 -12 19 0 68 -23 68 -32 0 -5 9 -8 21 -8 11 0 18 -4 15 -9 -3 -5
10 -16 29 -25 19 -9 40 -25 48 -36 22 -32 37 -27 57 20 11 25 14 37 6 27 -11
-14 -16 -15 -22 -6 -4 8 -1 17 8 23 13 8 8 18 -33 68 -27 33 -64 83 -83 112
-18 28 -69 94 -112 146 -43 51 -101 121 -128 154 -27 34 -52 63 -55 66 -4 3
-22 25 -41 50 -19 25 -45 56 -58 70 -67 71 -199 265 -255 374 l-20 38 -13 -23
c-8 -14 -11 -37 -8 -53 5 -21 3 -27 -7 -24 -8 3 -15 22 -17 46 -2 23 -6 42
-10 42 -4 0 -7 15 -6 33 1 18 -5 42 -13 52 -14 19 -15 19 -8 -5 5 -19 4 -21
-4 -10 -6 8 -11 27 -11 43 0 25 -3 27 -39 27 -22 0 -42 6 -45 13 -3 6 -4 -11
-1 -40 3 -28 1 -54 -4 -57 -5 -3 -7 4 -5 16 4 21 4 21 -7 -2 -8 -15 -13 -78
-13 -162 -1 -115 -3 -134 -15 -125 -11 10 -12 6 -6 -23 4 -19 14 -46 22 -60
11 -20 9 -19 -12 5 -14 17 -28 40 -31 51 -8 30 34 428 51 490 20 70 46 99 109
123 54 20 176 41 249 42 36 0 38 2 19 9 -12 5 -32 19 -45 30 -12 12 -44 35
-72 51 -192 114 -234 156 -230 231 2 49 54 162 94 205 14 16 23 24 19 19 -5
-6 -8 -15 -8 -20 0 -6 7 0 16 13 14 19 15 29 6 60 -16 51 -57 87 -126 111 -82
28 -96 26 -64 -7 40 -43 68 -107 68 -157 0 -47 -12 -65 -33 -47 -10 8 -16 -1
-26 -35 -7 -24 -16 -46 -20 -48 -3 -2 -4 37 -2 87 4 107 -6 147 -55 213 -35
47 -34 47 25 -14 72 -74 82 -70 14 6 -45 49 -94 84 -135 98 -10 4 -18 10 -18
15 0 5 7 6 15 3 19 -8 19 -4 -1 46 -20 50 -43 64 -81 49 -81 -30 -133 -96
-148 -189 -4 -25 -14 -56 -22 -70 -14 -24 -14 -24 -9 15 3 22 8 51 12 64 6 21
5 22 -15 12 -27 -15 -83 -23 -76 -11 3 5 -5 12 -19 16 -14 3 -24 11 -23 17 1
6 -17 20 -39 31 -23 12 -48 28 -57 37 -18 18 -57 127 -57 158 0 11 -5 23 -11
27 -6 3 -9 15 -6 25 3 11 1 19 -4 19 -5 0 -11 11 -15 24 -4 17 -11 23 -22 19
-10 -4 -13 -2 -8 5 4 7 3 12 -3 12 -5 0 -13 10 -17 22 -3 12 -24 50 -45 85
-21 34 -45 77 -54 95 -8 18 -33 65 -55 103 -22 39 -52 94 -65 123 -14 28 -30
52 -35 52 -6 0 -8 -5 -5 -10 4 -6 3 -10 -2 -9 -21 4 -36 -3 -68 -34 l-35 -33
37 -94 c20 -52 39 -97 43 -100 3 -3 12 -21 20 -40 26 -69 42 -106 80 -185 21
-44 43 -95 50 -112 7 -18 16 -33 20 -33 9 0 39 -76 46 -117 3 -15 12 -35 20
-44 8 -8 14 -21 14 -28 0 -7 4 -10 9 -7 15 9 18 -36 9 -120 -13 -121 21 -237
80 -268 l27 -15 -33 -1 c-46 0 -95 48 -140 140 l-37 75 -125 27 c-69 16 -138
33 -155 39 -16 6 -40 11 -53 10 -14 0 -20 3 -17 9 4 7 -2 9 -18 5 -33 -9 -35
-3 -41 190 -3 104 -2 142 4 110 4 -27 9 -101 9 -164 1 -97 3 -112 16 -107 9 3
35 -1 58 -9 23 -8 71 -17 107 -19 45 -4 56 -3 35 3 l-30 9 28 1 c19 1 30 8 36
24 5 12 20 33 35 46 21 20 23 27 14 45 -17 32 -36 48 -43 36 -7 -12 19 -42 29
-33 3 4 6 2 6 -3 0 -13 -29 -51 -31 -41 -2 8 -2 11 -13 50 -7 24 -13 27 -51
27 -24 0 -47 5 -50 10 -4 6 10 10 34 10 30 0 44 6 55 22 13 18 16 19 16 6 0
-9 4 -20 10 -23 6 -4 6 2 0 17 -6 13 -13 31 -16 41 -4 9 -11 17 -16 17 -5 0
-6 5 -3 10 3 6 2 10 -4 10 -5 0 -12 -6 -15 -12 -3 -7 -3 -2 0 12 3 14 1 37 -5
50 -5 14 -10 20 -10 13 -1 -6 -4 -20 -7 -30 -5 -15 -4 -15 5 -3 6 8 11 12 11
9 0 -10 -30 -79 -34 -79 -2 0 -3 42 -1 93 2 83 -1 100 -28 167 -17 41 -36 79
-44 83 -7 4 -13 13 -13 20 0 7 4 6 10 -3 14 -22 12 -11 -9 44 -10 27 -20 43
-23 35 -3 -8 -4 15 -4 51 1 51 6 72 24 97 34 48 104 102 159 123 l49 18 61
-121 c87 -172 173 -330 188 -345 10 -12 19 -10 51 8 35 19 30 21 -10 4 -9 -3
-19 5 -28 23 -15 29 -118 216 -137 249 -10 18 -33 72 -35 84 -1 3 -11 21 -24
41 -26 42 -29 84 -6 97 9 5 15 13 13 18 -1 5 25 27 58 49 95 62 101 67 82 61
-31 -9 -9 30 24 42 27 10 34 10 43 -3 6 -8 26 -15 44 -15 l33 0 -6 58 c-4 31
-13 77 -22 102 -14 42 -14 43 -10 9 3 -20 1 -47 -4 -60 -9 -22 -10 -20 -10 14
-1 39 -44 163 -64 182 -7 7 -8 4 -2 -10 29 -79 21 -126 -28 -155 -65 -40 -106
-20 -153 75 -47 96 -53 144 -24 185 22 31 26 32 76 28 39 -3 54 -1 54 8 0 7
-4 15 -10 19 -5 3 -7 12 -4 19 11 28 -142 106 -206 106 -18 0 -29 4 -25 10 3
6 30 10 58 10 202 -1 375 -155 422 -375 19 -89 19 -114 0 -159 -8 -19 -14 -41
-13 -48 2 -7 30 -18 63 -25 79 -16 114 -56 179 -200 50 -113 104 -210 90 -163
-6 23 -6 24 11 10 12 -10 16 -10 11 -2 -4 7 -4 18 2 25 9 12 49 158 73 266 15
71 15 249 0 331 -27 137 -90 298 -170 430 -11 19 -25 44 -30 55 -6 11 -24 33
-40 49 -17 16 -33 37 -36 47 -4 11 -11 19 -16 19 -5 0 -8 3 -7 8 6 16 -58 82
-84 88 -16 3 -26 9 -23 14 3 4 -5 6 -17 2 -14 -3 -19 -1 -14 6 5 8 1 10 -10 5
-12 -4 -15 -3 -10 5 4 7 6 11 4 11 -2 -1 -66 -6 -142 -10z m68 -273 c-3 -8 2
-26 11 -40 19 -29 18 -30 -19 -16 -30 11 -33 26 -9 52 19 22 24 23 17 4z
m-537 -194 c-42 -22 -81 -54 -102 -81 -44 -55 -46 -79 -4 -28 33 40 87 79 129
92 22 7 23 6 12 -8 -13 -15 -13 -38 1 -48 4 -3 -10 -14 -33 -24 -41 -19 -49
-30 -27 -38 6 -3 3 -6 -8 -6 -11 -1 -31 -17 -44 -36 -26 -39 -40 -41 -21 -3
11 20 11 21 -3 8 -33 -34 -49 -148 -27 -204 14 -37 2 -32 -15 7 l-15 32 5 -50
c3 -27 7 -72 9 -100 2 -27 11 -67 20 -89 9 -21 13 -43 9 -49 -3 -6 -1 -7 5 -3
7 4 12 1 12 -9 0 -9 4 -14 9 -11 5 3 12 -6 16 -22 3 -15 14 -36 23 -47 17 -19
17 -19 -13 -1 -88 54 -153 171 -162 288 -14 188 74 375 209 442 80 40 92 30
15 -12z m899 -104 c29 -56 54 -160 59 -243 l5 -80 -25 95 c-13 52 -31 124 -39
160 -8 36 -17 73 -21 83 -12 29 4 19 21 -15z m79 -129 c5 -52 4 -51 -14 21
-23 87 -25 108 -6 64 8 -17 16 -56 20 -85z m-840 5 c2 -21 2 -30 -1 -19 -3 11
-10 33 -15 50 -7 21 -6 26 1 19 6 -6 13 -28 15 -50z m-177 34 c-23 -18 -58
-80 -58 -102 0 -15 -3 -17 -11 -9 -6 6 -9 23 -5 36 8 34 54 87 74 87 14 0 14
-1 0 -12z m141 -65 c-1 -43 -2 -45 -9 -18 -11 44 -11 65 0 65 6 0 9 -21 9 -47z
m888 -85 c-2 -13 -4 -5 -4 17 -1 22 1 32 4 23 2 -10 2 -28 0 -40z m-1044 -127
c-2 -3 -18 10 -36 29 l-32 34 36 -30 c20 -16 34 -31 32 -33z m597 14 c0 -11
-130 -65 -155 -64 -23 0 91 52 153 68 1 1 2 -1 2 -4z m-595 -561 c10 4 11 -2
4 -27 -12 -42 -11 -124 1 -132 6 -3 10 -24 10 -46 0 -39 0 -39 39 -39 44 0 51
10 54 79 2 49 8 51 25 9 8 -18 20 -45 28 -60 16 -29 7 -37 -14 -16 -9 9 -12 9
-12 -1 0 -10 -3 -11 -14 -2 -11 10 -16 8 -21 -8 -7 -23 -30 -26 -69 -11 -23 8
-26 7 -27 -13 -1 -17 -2 -16 -9 8 -4 17 -10 100 -12 185 -2 85 -2 135 0 112 2
-32 7 -42 17 -38z m549 -329 c-8 -20 -20 -19 -28 1 -11 28 -7 35 14 24 11 -6
17 -16 14 -25z m-454 15 c0 -5 -19 -10 -42 -9 -33 0 -38 2 -23 9 28 12 65 12
65 0z m-160 -100 c0 -5 -4 -10 -10 -10 -5 0 -10 5 -10 10 0 6 5 10 10 10 6 0
10 -4 10 -10z m1100 -66 c0 -2 -9 -4 -21 -4 -11 0 -18 4 -14 10 5 8 35 3 35
-6z m-950 -44 c0 -22 -4 -40 -10 -40 -5 0 -10 18 -10 40 0 22 5 40 10 40 6 0
10 -18 10 -40z m997 34 c-3 -3 -12 -4 -19 -1 -8 3 -5 6 6 6 11 1 17 -2 13 -5z
m-1247 -34 c0 -5 -4 -10 -10 -10 -5 0 -10 5 -10 10 0 6 5 10 10 10 6 0 10 -4
10 -10z m275 -30 c3 -5 1 -10 -4 -10 -6 0 -11 5 -11 10 0 6 2 10 4 10 3 0 8
-4 11 -10z m150 0 c4 -6 -12 -10 -39 -10 -25 0 -46 5 -46 10 0 6 18 10 39 10
22 0 43 -4 46 -10z m876 -11 c119 -60 173 -173 127 -266 -17 -35 -28 -17 -28
44 0 107 -41 182 -122 222 -24 11 -37 21 -30 21 7 0 31 -9 53 -21z m-184 -71
c-2 -18 -4 -6 -4 27 0 33 2 48 4 33 2 -15 2 -42 0 -60z m108 -88 c3 -5 4 -14
0 -20 -8 -13 -35 -1 -35 16 0 16 26 19 35 4z m72 -22 c-3 -8 -6 -5 -6 6 -1 11
2 17 5 13 3 -3 4 -12 1 -19z m215 -305 c-5 -10 -22 -45 -37 -78 -15 -33 -37
-80 -48 -105 -12 -26 -20 -59 -18 -80 2 -19 0 -32 -3 -29 -11 10 -16 72 -7 84
4 5 14 26 21 45 17 43 90 180 96 180 3 0 1 -8 -4 -17z m-841 -69 l226 -7 29
-56 c38 -75 38 -75 24 -66 -6 4 -47 9 -89 11 -123 5 -146 23 -31 24 131 1 98
16 -54 25 -116 6 -369 40 -388 51 -4 3 -36 11 -71 19 l-62 14 95 -5 c52 -2
197 -7 321 -10z m503 -334 c-82 -62 -103 -88 -134 -165 -14 -33 -26 -53 -28
-45 -1 9 8 41 22 71 25 58 133 169 163 169 9 0 0 -12 -23 -30z m69 -162 c22
-17 21 -17 -10 -6 -53 20 -110 -5 -147 -65 -23 -38 -30 -61 -32 -117 -2 -45 0
-68 7 -65 5 4 9 3 8 -2 -6 -24 16 -85 34 -94 16 -9 19 -9 14 4 -4 11 5 9 36
-8 23 -12 42 -28 42 -36 0 -22 -39 -22 -65 1 -13 11 -26 17 -29 14 -3 -3 7
-17 22 -30 31 -26 101 -33 139 -13 23 13 30 9 18 -10 -5 -8 -32 -16 -64 -19
-49 -4 -60 -1 -90 22 -50 37 -99 143 -104 220 -7 115 46 229 122 261 27 11 31
10 53 -14 13 -14 34 -34 46 -43z m-233 34 c-45 -31 -109 -93 -115 -113 -4 -11
-11 -17 -16 -14 -14 9 -41 -69 -80 -232 -6 -24 -16 -43 -24 -43 -7 0 -18 -7
-25 -15 -11 -13 -10 -14 6 -9 10 3 6 -3 -11 -13 -41 -27 -58 -50 -51 -68 3 -9
0 -15 -8 -15 -11 0 -13 19 -11 93 2 73 1 84 -6 52 -14 -60 -14 -60 -24 -61
-25 -3 -35 11 -35 48 0 23 -4 37 -10 33 -5 -3 -10 -28 -10 -55 0 -39 3 -48 14
-44 8 3 19 -3 25 -15 10 -18 6 -27 -28 -63 -22 -23 -37 -46 -34 -51 3 -6 1 -7
-5 -3 -14 8 -62 -21 -62 -38 0 -7 3 -7 8 -1 4 6 16 17 27 25 15 11 14 8 -4
-12 -13 -15 -26 -26 -30 -25 -10 3 -51 -29 -45 -35 3 -3 -10 -15 -29 -27 -18
-11 -41 -29 -51 -40 -10 -11 -23 -18 -29 -14 -6 3 -7 1 -3 -5 4 -7 2 -12 -3
-12 -6 0 -11 -7 -11 -14 0 -8 -12 -21 -27 -29 -16 -7 -27 -18 -26 -25 2 -6 -4
-9 -12 -6 -8 4 -15 2 -15 -2 0 -5 -13 -15 -30 -22 -16 -8 -30 -20 -30 -28 0
-9 -5 -12 -12 -8 -7 4 -8 3 -4 -4 4 -7 1 -21 -7 -33 -14 -19 -15 -19 -36 23
-11 24 -29 56 -40 71 -15 24 -19 26 -25 12 -3 -10 2 -28 13 -43 29 -41 52
-102 39 -102 -6 0 -8 -3 -5 -7 4 -3 -2 -16 -13 -28 l-21 -22 23 -47 c18 -37
26 -45 43 -41 11 3 14 2 8 -1 -18 -8 -16 -27 1 -21 11 4 13 1 9 -10 -4 -10 -2
-14 4 -10 6 4 14 0 17 -9 3 -8 2 -12 -4 -9 -16 10 -11 -8 10 -35 11 -14 20
-33 20 -42 0 -10 5 -18 11 -18 5 0 8 -4 5 -9 -4 -5 10 -19 29 -31 19 -12 35
-29 36 -38 0 -11 2 -12 6 -4 7 18 24 14 21 -5 -2 -10 2 -17 9 -16 9 2 10 -4 2
-24 -5 -14 -6 -29 -2 -32 8 -6 45 -61 77 -116 l18 -30 -26 30 c-15 17 -47 61
-72 98 -37 55 -49 66 -60 56 -11 -9 -17 -4 -29 27 -23 59 -71 147 -149 273
-122 194 -120 191 -120 251 0 33 7 68 17 88 9 17 24 45 32 61 8 16 44 57 80
92 36 35 65 67 65 71 0 4 -9 8 -21 8 -24 0 -55 26 -38 32 7 2 12 47 14 118 2
63 8 127 14 143 6 15 7 27 4 27 -4 0 -1 6 5 12 9 9 81 15 238 19 184 5 227 9
237 22 16 20 123 87 139 87 7 0 42 14 78 31 81 39 136 57 175 57 l30 1 -25
-17z m120 -124 c-11 -12 -25 -36 -29 -53 -8 -26 -9 -27 -10 -7 -1 25 34 82 50
82 5 0 0 -10 -11 -22z m-123 -20 c-3 -8 -6 -5 -6 6 -1 11 2 17 5 13 3 -3 4
-12 1 -19z m766 -146 c19 -16 23 -57 7 -67 -5 -3 -10 0 -10 7 0 17 -45 80 -52
73 -2 -3 -5 2 -5 9 0 12 5 13 21 4 12 -6 29 -17 39 -26z m-339 -183 c-27 -29
-29 -34 -26 -107 2 -42 7 -79 11 -82 4 -3 14 -22 20 -42 16 -49 36 -63 28 -19
-6 29 -5 31 9 17 12 -13 13 -20 3 -38 -7 -13 -18 -27 -25 -33 -12 -9 -19 -66
-16 -122 2 -26 27 -31 36 -7 3 9 2 23 -3 32 -6 11 -4 26 5 44 18 34 27 37 14
4 -5 -15 -5 -37 0 -55 5 -18 5 -33 -1 -36 -15 -10 -10 -35 6 -35 9 0 15 9 15
25 0 14 5 25 11 25 5 0 7 -5 4 -10 -4 -6 -1 -17 5 -25 10 -12 9 -15 -4 -15
-20 0 -21 -33 -1 -50 9 -7 14 -19 11 -27 -4 -9 -1 -11 6 -7 6 4 16 0 22 -8 6
-9 20 -17 31 -19 15 -3 21 -14 23 -42 3 -36 4 -37 43 -37 39 0 39 0 39 -40 0
-28 4 -40 15 -40 8 0 19 -9 24 -19 6 -10 24 -24 41 -29 31 -11 41 -32 15 -32
-8 0 -15 -3 -15 -6 0 -13 75 -74 91 -74 15 0 19 -8 19 -40 0 -29 4 -40 15 -40
11 0 16 12 17 43 l1 42 4 -43 c2 -23 8 -40 12 -38 4 3 4 -21 -1 -52 -15 -97
-15 -155 -2 -180 7 -14 10 -31 7 -40 -5 -12 1 -14 38 -10 24 3 52 9 61 13 13
5 21 -4 37 -40 11 -25 48 -75 81 -110 34 -34 58 -65 53 -68 -4 -3 -26 -8 -48
-12 -22 -4 -48 -12 -58 -17 -18 -9 -18 -11 -1 -29 16 -17 16 -19 1 -20 -10 -1
-23 -2 -29 -3 -8 0 -21 -38 -32 -91 -10 -49 -19 -91 -21 -93 -1 -1 -58 4 -126
12 -68 8 -169 17 -224 20 -55 4 -206 13 -335 21 -129 8 -271 17 -315 20 -96 6
-213 15 -275 21 -25 2 -133 11 -240 19 -275 22 -542 54 -557 67 -10 8 -13 6
-13 -11 0 -18 -6 -21 -40 -21 -34 0 -40 3 -40 21 0 17 5 20 35 17 20 -1 39 2
43 7 10 14 18 15 175 21 415 14 610 40 662 88 15 14 32 26 37 26 5 0 27 17 51
39 l42 38 305 6 c382 7 485 22 445 67 -8 9 -12 20 -9 23 4 4 2 12 -4 19 -8 10
6 27 59 71 38 32 69 64 69 71 0 7 -11 30 -25 50 -13 20 -22 36 -18 36 3 0 -2
9 -11 19 -11 12 -25 17 -37 14 -15 -4 -17 -8 -8 -14 7 -4 -20 -8 -60 -8 -106
0 -161 -10 -154 -27 3 -9 20 -14 44 -14 28 0 39 -4 39 -15 0 -8 6 -12 14 -9
19 7 32 -16 15 -27 -8 -5 -22 -6 -31 -3 -13 4 -18 0 -18 -15 0 -12 -2 -21 -4
-21 -2 0 -12 -3 -22 -7 -12 -4 -15 -3 -10 5 5 8 2 10 -8 6 -20 -8 -21 -24 -1
-24 8 0 15 -7 15 -15 0 -11 -13 -15 -54 -15 -32 0 -56 -5 -58 -12 -3 -7 -14
-9 -30 -5 -30 8 -31 31 -3 73 8 13 13 24 9 24 -4 0 -1 7 6 15 7 8 9 15 6 15
-4 0 0 7 8 16 20 20 20 43 0 51 -13 5 -12 9 7 29 12 13 23 41 26 66 4 38 1 49
-29 88 -48 64 -49 66 -33 80 13 11 14 10 8 -6 -6 -17 -5 -17 10 -5 9 7 17 9
17 3 0 -5 13 -15 30 -20 19 -7 32 -20 36 -36 8 -33 15 -33 42 4 39 53 38 104
-3 190 -33 69 -37 72 -48 53 -7 -12 -36 -59 -65 -105 -28 -46 -50 -89 -47 -95
2 -7 1 -12 -3 -12 -19 3 -21 -3 -7 -24 8 -13 18 -44 21 -68 5 -38 0 -59 -31
-131 -54 -127 -125 -189 -256 -224 -35 -10 -66 -19 -68 -20 -2 -2 5 -11 14
-21 17 -16 16 -18 -11 -25 -34 -9 -39 -6 -25 20 6 12 11 37 11 56 0 40 1 40
89 98 61 39 106 89 138 153 19 37 7 25 -41 -42 -48 -67 -165 -147 -238 -163
-29 -6 -106 -14 -171 -18 -102 -6 -117 -5 -115 8 2 8 10 15 18 15 8 0 15 6 15
12 0 14 8 25 146 192 97 117 129 151 129 135 0 -5 -28 -39 -63 -76 -34 -37
-79 -91 -101 -120 -37 -51 -37 -52 -5 -18 102 108 187 215 177 221 -16 10 9
40 27 33 7 -3 16 -1 20 5 4 7 0 8 -11 4 -25 -9 -10 12 62 91 34 36 70 66 80
66 39 0 65 13 78 39 27 51 87 109 141 136 30 14 55 31 55 36 0 12 -4 12 -45
-8 -46 -22 -68 -6 -36 26 12 12 21 19 21 16 0 -3 9 -1 21 5 14 8 18 17 14 28
-30 72 -45 153 -36 191 12 53 99 177 114 162 8 -8 3 -20 -19 -42z m14 -13 c-7
-8 -15 -12 -17 -11 -5 6 10 25 20 25 5 0 4 -6 -3 -14z m-653 -21 c-16 -14 -38
-28 -48 -31 -10 -3 -16 -12 -13 -19 3 -9 0 -12 -8 -9 -10 4 -12 -3 -10 -23 l4
-28 -10 30 c-11 34 -9 38 57 76 59 35 67 36 28 4z m852 -7 c2 -17 0 -19 -7 -8
-5 8 -6 18 -4 22 8 12 10 10 11 -14z m44 -71 c-10 -9 -11 -8 -5 6 3 10 9 15
12 12 3 -3 0 -11 -7 -18z m-1738 6 c-13 -2 -33 -2 -45 0 -13 2 -3 4 22 4 25 0
35 -2 23 -4z m715 -7 c-7 -8 -15 -13 -18 -12 -6 4 -40 -32 -40 -41 0 -12 -23
-10 -27 2 -1 6 16 22 40 37 46 30 65 36 45 14z m1123 -96 c30 -36 70 -85 89
-110 18 -25 65 -82 102 -126 37 -45 68 -88 68 -96 0 -17 -29 -58 -30 -41 0 6
5 15 10 18 6 3 10 11 10 16 0 6 -4 8 -8 5 -4 -2 -13 8 -20 22 -6 15 -70 101
-142 191 -156 196 -212 281 -79 121z m-1211 32 c0 -7 -86 -90 -115 -110 -19
-13 -119 -97 -140 -117 -52 -50 -84 -73 -91 -67 -4 4 -4 2 -1 -4 4 -6 -7 -23
-23 -38 -27 -24 -31 -25 -37 -9 -8 20 30 56 247 234 138 114 160 129 160 111z
m910 -27 c11 -13 10 -14 -4 -9 -9 3 -16 10 -16 15 0 13 6 11 20 -6z m-1585
-57 c-48 -24 -95 -67 -95 -85 0 -7 -5 -13 -10 -13 -14 0 12 50 37 72 19 18 81
47 98 47 6 0 -8 -9 -30 -21z m1621 -47 c0 -11 -5 -17 -13 -14 -10 4 -11 9 -2
19 15 18 15 18 15 -5z m-1036 -16 c-7 -8 -18 -15 -24 -15 -6 0 -2 7 8 15 25
19 32 19 16 0z m1031 -75 c5 0 9 -5 9 -11 0 -8 -5 -8 -15 1 -8 7 -14 20 -14
29 1 13 2 13 6 -1 2 -10 9 -18 14 -18z m-1291 -15 c-7 -8 -17 -15 -22 -15 -6
0 -5 7 2 15 7 8 17 15 22 15 6 0 5 -7 -2 -15z m-417 -21 c-48 -23 -85 -57 -96
-87 -2 -7 -7 -9 -11 -6 -10 10 53 82 87 101 18 9 41 17 52 17 11 0 -2 -11 -32
-25z m567 16 c0 -5 -4 -10 -10 -10 -5 0 -10 5 -10 10 0 6 5 10 10 10 6 0 10
-4 10 -10z m1478 -31 c19 -30 8 -34 -12 -4 -9 14 -13 25 -9 25 5 0 14 -9 21
-21z m-927 -6 c13 -16 12 -17 -3 -4 -17 13 -22 21 -14 21 2 0 10 -8 17 -17z
m285 -48 c-45 -50 -59 -61 -91 -63 -20 -2 -45 0 -54 4 -9 4 -22 8 -30 10 -7 1
-19 8 -25 15 -8 9 -6 9 12 0 22 -12 28 -6 23 22 -1 5 3 5 9 2 6 -4 9 -13 6
-21 -3 -8 0 -11 10 -7 11 4 12 9 3 19 -9 11 -4 21 23 48 33 33 38 35 101 33
l66 -1 -53 -61z m-886 51 c0 -3 -4 -8 -10 -11 -5 -3 -10 -1 -10 4 0 6 5 11 10
11 6 0 10 -2 10 -4z m-53 -52 c-15 -14 -27 -29 -27 -35 0 -6 -4 -7 -10 -4 -5
3 -10 1 -10 -5 0 -6 -4 -9 -9 -6 -5 4 -12 0 -14 -6 -4 -10 -6 -10 -6 -1 -1 7
5 17 12 23 6 5 28 23 47 39 41 35 56 31 17 -5z m1629 -11 c-7 -7 -26 7 -26 19
0 6 6 6 15 -2 9 -7 13 -15 11 -17z m387 10 c-7 -2 -21 -2 -30 0 -10 3 -4 5 12
5 17 0 24 -2 18 -5z m-1298 -48 c22 -14 48 -25 58 -25 23 0 22 -13 -4 -36 -12
-10 -45 -46 -72 -79 -28 -33 -54 -59 -59 -58 -4 2 -7 -1 -5 -5 3 -12 -126
-152 -141 -152 -7 0 -12 -6 -11 -12 3 -23 -1 -41 -7 -35 -6 6 -38 -20 -40 -32
-3 -18 -18 -41 -26 -41 -6 0 -5 6 2 15 9 10 9 15 1 15 -11 0 -15 -13 -12 -39
2 -7 -2 -10 -8 -6 -7 3 -11 -2 -11 -14 0 -25 -12 -32 -30 -20 -9 5 -10 9 -3 9
6 0 15 10 19 23 10 31 107 156 122 157 12 0 16 12 13 38 -1 6 5 12 14 12 8 0
14 5 13 11 -2 6 3 14 11 17 10 3 12 0 7 -14 -5 -14 -4 -16 4 -8 7 7 8 19 1 38
-10 24 -6 31 31 71 30 31 44 41 50 32 6 -9 8 -9 8 1 0 7 -7 15 -15 18 -11 5
-3 14 29 36 36 23 44 34 42 55 -2 14 -11 32 -21 40 -32 22 -2 14 40 -12z
m1905 21 c0 -3 -4 -8 -10 -11 -5 -3 -10 -1 -10 4 0 6 5 11 10 11 6 0 10 -2 10
-4z m-3051 -37 c-6 -12 -7 -19 -2 -17 4 3 16 -3 26 -14 16 -17 15 -18 -25 -18
-35 0 -50 -7 -79 -33 -20 -19 -42 -51 -49 -72 -16 -49 -8 -166 14 -200 9 -14
14 -25 11 -25 -3 0 17 -20 45 -45 28 -25 57 -45 65 -45 8 0 15 -4 15 -10 0
-16 -22 -12 -60 11 -44 27 -54 40 -89 114 -37 77 -45 130 -31 199 18 86 96
176 153 176 15 0 16 -3 6 -21z m2101 -14 c0 -5 -5 -3 -10 5 -5 8 -10 20 -10
25 0 6 5 3 10 -5 5 -8 10 -19 10 -25z m390 -10 c0 -19 -4 -35 -10 -35 -11 0
-14 53 -3 63 11 12 13 8 13 -28z m570 20 c0 -8 -2 -15 -4 -15 -2 0 -6 7 -10
15 -3 8 -1 15 4 15 6 0 10 -7 10 -15z m-2675 -26 c-5 -16 -4 -19 5 -14 9 5 11
4 6 -4 -4 -6 3 -25 14 -42 12 -16 20 -32 17 -35 -9 -9 -57 85 -51 100 9 24 16
19 9 -5z m2705 -39 c0 -5 -2 -10 -4 -10 -3 0 -8 5 -11 10 -3 6 -1 10 4 10 6 0
11 -4 11 -10z m-3181 -82 c-6 -12 -15 -33 -20 -47 -5 -17 -8 -20 -8 -8 -1 18
25 77 35 77 2 0 -1 -10 -7 -22z m74 -32 c-21 -28 -28 -26 -18 3 3 12 13 21 21
21 12 0 12 -4 -3 -24z m2597 -16 c0 -5 -7 -7 -15 -4 -8 4 -15 8 -15 10 0 2 7
4 15 4 8 0 15 -4 15 -10z m40 -19 c0 -5 6 -11 14 -13 9 -2 11 -10 6 -22 -6
-18 -8 -16 -23 12 -8 18 -11 32 -6 32 5 0 9 -4 9 -9z m-2553 -43 c-3 -8 -6 -5
-6 6 -1 11 2 17 5 13 3 -3 4 -12 1 -19z m10 -65 c-3 -10 -5 -2 -5 17 0 19 2
27 5 18 2 -10 2 -26 0 -35z m2251 -16 c-6 -11 -21 -32 -34 -46 -38 -41 -58
-92 -58 -151 -1 -60 20 -124 39 -117 6 3 11 -4 11 -17 -1 -12 4 -20 12 -18 8
1 11 -2 7 -8 -3 -5 -3 -15 1 -21 4 -8 9 -7 15 2 6 9 9 10 9 2 0 -6 23 -19 51
-28 28 -9 48 -19 46 -21 -2 -2 -18 1 -36 7 -18 6 -35 9 -38 5 -4 -3 -1 -6 5
-6 7 0 12 -5 12 -10 0 -6 -12 -3 -27 7 -87 53 -123 122 -123 233 0 82 17 132
64 187 31 36 64 36 44 0z m467 -54 c9 -21 14 -47 12 -58 -3 -16 -6 -13 -12 12
-5 21 -12 30 -21 26 -17 -6 -18 9 -1 26 10 11 8 11 -10 2 -25 -13 -45 5 -22
20 26 16 39 9 54 -28z m-212 9 c24 -27 47 -99 46 -146 -1 -49 -8 -73 -31 -106
-29 -40 -45 -10 -57 103 -6 53 -12 101 -12 105 -1 4 -1 19 0 35 1 32 29 37 54
9z m-251 -32 c-41 -40 -56 -90 -49 -159 5 -50 4 -54 -9 -37 -30 42 -9 143 41
193 18 18 36 33 40 33 3 0 -7 -13 -23 -30z m-602 -25 c0 -18 -4 -23 -15 -19
-8 4 -15 10 -15 16 0 5 5 6 10 3 6 -3 10 -2 10 4 0 5 -6 12 -12 14 -8 3 -6 6
5 6 12 1 17 -7 17 -24z m44 13 c-3 -4 -9 -8 -15 -8 -5 0 -9 4 -9 8 0 5 7 9 15
9 8 0 12 -4 9 -9z m-1224 -18 c0 -5 -2 -10 -4 -10 -3 0 -8 5 -11 10 -3 6 -1
10 4 10 6 0 11 -4 11 -10z m2497 -74 c70 -36 137 -72 148 -80 l20 -16 -20 -18
c-44 -39 -65 -80 -65 -128 0 -26 -2 -45 -5 -43 -2 3 -5 50 -6 106 0 55 -4 105
-7 110 -10 15 -110 46 -127 39 -10 -3 -17 3 -21 20 -4 13 -19 31 -35 39 -15 8
-31 19 -34 25 -14 23 31 7 152 -54z m-167 31 c-21 -16 -61 -83 -54 -89 3 -4 1
-9 -5 -13 -18 -10 -12 17 10 55 20 33 46 60 58 60 3 0 -1 -6 -9 -13z m440 -58
c0 -4 -7 -6 -15 -3 -8 4 -15 10 -15 15 0 4 7 6 15 3 8 -4 15 -10 15 -15z
m-813 -51 c-3 -7 -5 -2 -5 12 0 14 2 19 5 13 2 -7 2 -19 0 -25z m533 22 c0 -5
-7 -10 -16 -10 -8 0 -12 5 -9 10 3 6 10 10 16 10 5 0 9 -4 9 -10z m-503 -22
c-3 -8 -6 -5 -6 6 -1 11 2 17 5 13 3 -3 4 -12 1 -19z m467 -33 c-4 -8 -8 -15
-10 -15 -2 0 -4 7 -4 15 0 8 4 15 10 15 5 0 7 -7 4 -15z m236 -13 c-8 -3 -22
-10 -30 -16 -8 -6 -7 -1 4 11 10 13 23 20 29 16 7 -4 6 -8 -3 -11z m-220 -45
c0 -5 -4 -5 -10 -2 -5 3 -10 14 -10 23 0 15 2 15 10 2 5 -8 10 -19 10 -23z
m-20 -27 c0 -5 -2 -10 -4 -10 -3 0 -8 5 -11 10 -3 6 -1 10 4 10 6 0 11 -4 11
-10z m-243 -102 c-3 -8 -6 -5 -6 6 -1 11 2 17 5 13 3 -3 4 -12 1 -19z m236 -3
c-7 -21 -13 -19 -13 6 0 11 4 18 10 14 5 -3 7 -12 3 -20z m124 -27 c-3 -7 -5
-2 -5 12 0 14 2 19 5 13 2 -7 2 -19 0 -25z m-385 -50 c-8 -8 -9 -4 -5 13 4 13
8 18 11 10 2 -7 -1 -18 -6 -23z m425 -20 c-3 -7 -5 -2 -5 12 0 14 2 19 5 13 2
-7 2 -19 0 -25z m-80 0 c-3 -8 -6 -5 -6 6 -1 11 2 17 5 13 3 -3 4 -12 1 -19z
m-21 -25 c-11 -11 -17 4 -9 23 7 18 8 18 11 1 2 -10 1 -21 -2 -24z m-6 -17 c0
-3 -4 -8 -10 -11 -5 -3 -10 -1 -10 4 0 6 5 11 10 11 6 0 10 -2 10 -4z m240
-26 c0 -5 -4 -10 -9 -10 -6 0 -13 5 -16 10 -3 6 1 10 9 10 9 0 16 -4 16 -10z
m-253 -6 c-3 -3 -12 -4 -19 -1 -8 3 -5 6 6 6 11 1 17 -2 13 -5z m568 -14 c-3
-5 -22 -10 -41 -10 -19 0 -34 5 -34 10 0 6 18 10 41 10 24 0 38 -4 34 -10z
m-672 -17 c-7 -2 -21 -2 -30 0 -10 3 -4 5 12 5 17 0 24 -2 18 -5z m110 -10
c-13 -2 -33 -2 -45 0 -13 2 -3 4 22 4 25 0 35 -2 23 -4z m705 -80 c-10 -2 -28
-2 -40 0 -13 2 -5 4 17 4 22 1 32 -1 23 -4z"/>
<path d="M2420 4393 c0 -4 5 -15 10 -23 8 -13 10 -13 10 2 0 9 -4 20 -10 23
-5 3 -10 3 -10 -2z"/>
<path d="M2302 4340 c0 -14 2 -19 5 -12 2 6 2 18 0 25 -3 6 -5 1 -5 -13z"/>
<path d="M2831 2804 c0 -11 3 -14 6 -6 3 7 2 16 -1 19 -3 4 -6 -2 -5 -13z"/>
<path d="M2190 1995 c0 -5 5 -17 10 -25 5 -8 10 -10 10 -5 0 6 -5 17 -10 25
-5 8 -10 11 -10 5z"/>
<path d="M2437 1584 c6 -15 23 -19 23 -5 0 5 -7 11 -14 14 -10 4 -13 1 -9 -9z"/>
<path d="M3630 1994 c1 -15 28 -46 33 -37 2 4 -4 17 -14 27 -11 11 -19 15 -19
10z"/>
<path d="M3640 1930 c6 -11 13 -20 16 -20 2 0 0 9 -6 20 -6 11 -13 20 -16 20
-2 0 0 -9 6 -20z"/>
<path d="M3393 1681 l-23 -30 31 -6 c17 -4 35 -2 43 5 11 8 16 8 20 -2 3 -7 3
-2 0 12 -7 26 -23 42 -35 34 -4 -2 -9 1 -11 7 -2 5 -13 -3 -25 -20z m47 -17
c0 -8 -4 -12 -10 -9 -5 3 -10 10 -10 16 0 5 5 9 10 9 6 0 10 -7 10 -16z"/>
<path d="M3548 1513 c6 -2 18 -2 25 0 6 3 1 5 -13 5 -14 0 -19 -2 -12 -5z"/>
<path d="M3125 1930 c-3 -6 1 -7 9 -4 18 7 21 14 7 14 -6 0 -13 -4 -16 -10z"/>
<path d="M2980 1750 c-8 -5 -11 -12 -8 -16 4 -3 14 1 23 10 18 17 9 21 -15 6z"/>
<path d="M4317 1199 c7 -7 15 -10 18 -7 3 3 -2 9 -12 12 -14 6 -15 5 -6 -5z"/>
<path d="M5123 1269 c-2 -23 3 -25 10 -4 4 8 3 16 -1 19 -4 3 -9 -4 -9 -15z"/>
<path d="M6551 5973 c-23 -25 -39 -49 -36 -52 3 -3 17 8 30 24 l24 30 30 -32
c34 -38 37 -39 45 -17 4 12 2 15 -9 11 -16 -7 -29 6 -18 17 12 11 12 36 1 43
-6 3 -8 2 -5 -4 3 -5 0 -10 -8 -10 -13 0 -12 4 2 19 14 16 14 18 0 18 -8 0
-34 -21 -56 -47z"/>
<path d="M6600 5915 c0 -4 13 -24 29 -44 16 -20 37 -53 47 -74 20 -42 33 -46
59 -17 10 11 13 20 7 20 -6 0 -15 -7 -20 -16 -8 -14 -18 -4 -56 54 -42 66 -66
93 -66 77z"/>
<path d="M5540 5880 c0 -9 25 -20 46 -20 9 0 13 4 10 9 -7 11 -56 21 -56 11z"/>
<path d="M5513 5853 c3 -16 7 -36 9 -44 4 -17 36 -26 96 -28 23 0 42 -6 42
-12 0 -5 4 -8 9 -4 5 3 12 2 15 -3 8 -14 105 -3 136 15 32 19 65 72 58 94 -3
9 -12 1 -23 -23 -20 -42 -50 -58 -105 -58 -35 0 -70 19 -70 40 0 4 -24 7 -54
6 -43 -1 -61 4 -87 23 l-32 24 6 -30z"/>
<path d="M5750 5830 c0 -5 9 -10 21 -10 11 0 17 5 14 10 -3 6 -13 10 -21 10
-8 0 -14 -4 -14 -10z"/>
<path d="M4850 5741 c1 -3 19 -37 41 -76 23 -38 38 -62 35 -52 -9 27 7 21 72
-28 103 -78 156 -178 166 -315 3 -49 2 -65 -3 -45 -7 26 -9 22 -10 -27 -1 -57
-4 -62 -37 -57 -4 0 -11 -5 -16 -13 -5 -8 -6 2 -3 27 5 28 3 36 -3 26 -7 -10
-12 2 -17 45 -10 92 -25 122 -19 39 l4 -70 -14 50 c-31 105 -56 171 -51 135
25 -193 15 -367 -34 -557 l-27 -109 50 -22 c28 -12 60 -22 71 -22 11 -1 31 -7
45 -15 14 -8 42 -14 63 -15 20 0 37 -5 37 -11 0 -8 16 -10 48 -7 37 4 54 0 71
-14 15 -12 31 -16 48 -12 19 5 25 2 30 -15 3 -13 13 -21 27 -21 16 0 18 -2 7
-9 -12 -7 -12 -13 0 -40 12 -27 19 -31 51 -31 25 0 38 -5 38 -13 0 -8 17 -25
38 -38 32 -21 37 -30 40 -67 3 -42 3 -42 42 -42 22 0 40 5 43 13 4 10 7 10 18
0 11 -11 10 -13 -4 -13 -10 0 -17 -8 -17 -20 0 -14 6 -20 18 -18 13 2 17 -4
17 -32 0 -19 -4 -48 -8 -64 -7 -24 -5 -27 8 -22 12 4 13 2 6 -12 -11 -22 -11
-72 1 -72 5 0 6 -5 3 -10 -9 -14 19 -56 51 -76 14 -10 57 -24 96 -33 l70 -16
28 -77 c14 -42 38 -92 53 -110 14 -18 37 -47 51 -64 l26 -32 -23 -6 c-12 -3
-40 -6 -62 -6 -120 -1 -256 -74 -327 -178 -22 -32 -35 -42 -49 -39 -21 6 -27
-18 -6 -27 6 -3 -5 -4 -26 -1 -74 11 -107 -66 -92 -222 4 -41 13 -90 21 -109
8 -18 10 -35 5 -39 -5 -3 -12 1 -15 7 -3 7 -3 -3 0 -22 12 -75 72 -180 141
-249 99 -98 159 -110 233 -48 38 33 33 49 -6 18 -26 -20 -74 -29 -74 -13 0 4
14 20 30 36 l30 29 99 -9 99 -9 49 64 c26 36 74 87 105 114 55 47 59 49 76 34
23 -21 39 -22 22 -2 -14 17 -11 45 18 195 12 58 30 166 41 240 12 74 25 136
31 138 20 7 9 20 -22 27 l-33 8 28 4 c16 3 34 0 41 -6 7 -6 16 -8 19 -4 4 3
-7 15 -25 26 l-32 19 27 14 c22 12 73 87 70 104 0 3 -3 18 -7 33 -4 17 -3 26
3 23 5 -3 7 3 4 14 -3 13 0 20 8 20 12 0 12 2 0 9 -9 6 -12 18 -7 37 4 16 8
61 8 99 l1 70 18 -43 c10 -24 23 -78 28 -120 l10 -77 -4 75 c-2 42 -13 104
-25 139 -24 77 -25 93 -3 89 10 -2 17 -14 19 -34 1 -17 7 -48 13 -70 6 -21 11
-51 11 -66 0 -15 5 -30 10 -33 6 -4 10 -3 8 2 -1 4 2 24 7 43 5 19 8 44 7 55
-3 20 -2 20 9 0 20 -32 15 -126 -9 -177 -28 -57 -28 -67 2 -39 46 43 73 118
80 226 4 54 15 115 23 135 16 36 18 78 3 94 -5 4 -55 -23 -113 -60 -94 -62
-104 -72 -100 -94 5 -23 4 -23 -8 -7 -12 15 -20 16 -70 6 l-56 -11 -111 57
c-61 31 -133 76 -160 100 -68 61 -129 143 -137 185 -5 27 -4 32 5 20 10 -12
11 -11 7 8 -4 17 -2 22 7 19 10 -4 15 10 20 46 3 29 13 72 21 96 10 26 15 71
14 115 -1 39 -4 65 -6 58 -3 -6 -9 -10 -14 -6 -5 3 -9 -7 -9 -21 0 -20 -4 -26
-14 -22 -11 4 -19 -8 -31 -42 l-15 -47 -65 7 c-38 4 -73 13 -84 23 -9 9 -26
16 -37 16 -11 0 -30 9 -41 19 -12 11 -25 17 -29 13 -5 -4 9 12 31 36 21 23 36
42 31 42 -12 0 -97 -60 -146 -104 -30 -27 -36 -30 -17 -10 l28 31 -30 31 c-16
18 -34 32 -40 32 -6 0 -15 9 -21 19 -5 11 -26 25 -45 32 -19 7 -35 19 -35 26
0 7 -10 13 -23 13 -24 0 -107 55 -107 71 0 5 -7 9 -15 9 -8 0 -15 4 -15 9 0 5
-23 24 -50 42 -34 23 -49 39 -46 51 3 12 -1 15 -13 11 -14 -6 -13 -3 2 14 10
12 52 37 93 57 61 30 74 41 75 61 1 14 2 32 3 40 0 8 -3 15 -8 14 -5 0 -12 5
-17 12 -6 10 -12 9 -28 -5 -12 -11 -21 -15 -21 -10 -1 5 -7 -2 -15 -16 l-14
-25 -1 31 c0 54 -37 178 -70 240 -42 77 -60 128 -50 144 5 8 9 9 14 1 4 -6 12
-11 17 -11 6 0 8 4 5 8 -3 5 16 -2 42 -14 26 -13 56 -23 67 -23 15 0 11 4 -11
13 -40 18 -52 36 -25 36 12 0 21 4 21 10 0 6 -3 9 -7 8 -15 -3 -62 25 -57 33
5 8 -19 13 -53 12 -7 -1 -13 4 -13 9 0 6 -13 8 -28 6 -16 -2 -34 2 -41 10 -7
7 -27 12 -45 11 -17 -2 -37 0 -43 4 -14 9 -113 7 -113 -2z m1351 -2208 c60
-56 106 -143 114 -214 6 -59 4 -57 -42 56 -34 85 -99 174 -147 204 -20 13 -36
25 -36 27 0 12 68 -33 111 -73z m97 -42 c33 -50 42 -71 41 -104 0 -39 -1 -40
-11 -17 -6 14 -22 50 -35 80 -13 30 -38 73 -56 95 -29 36 -29 39 -7 24 14 -8
44 -44 68 -78z m-292 -30 c56 -26 110 -92 123 -152 6 -26 9 -54 6 -61 -2 -7
-7 -26 -9 -41 -7 -40 -27 -100 -37 -111 -5 -6 -11 -2 -15 8 -4 10 -2 22 5 29
23 23 12 93 -26 167 -42 83 -75 109 -131 103 -50 -5 -73 -18 -99 -56 -69 -101
-11 -247 97 -247 16 0 32 -5 36 -12 7 -11 -47 -8 -114 6 -16 3 -22 1 -19 -7 3
-7 9 -11 15 -10 6 2 19 -8 29 -20 10 -13 24 -22 32 -19 8 3 11 0 7 -7 -5 -7 2
-11 18 -11 13 0 26 4 28 10 2 6 18 4 42 -4 l39 -13 -36 -12 c-110 -37 -232 87
-229 233 0 32 4 62 9 65 4 3 9 12 11 20 2 8 12 27 23 42 10 15 19 32 19 38 0
6 12 18 26 27 17 12 21 19 13 24 -18 11 20 29 61 29 19 1 53 -8 76 -18z m1
-113 c25 -28 53 -92 53 -122 -1 -12 -12 5 -26 38 -13 33 -34 70 -46 83 -12 13
-17 23 -11 23 5 0 19 -10 30 -22z m18 -316 c-3 -3 -11 0 -18 7 -9 10 -8 11 6
5 10 -3 15 -9 12 -12z"/>
<path d="M5700 5742 c0 -15 32 -24 44 -12 7 7 7 10 -1 10 -6 0 -18 3 -27 6 -9
3 -16 2 -16 -4z"/>
<path d="M4933 5580 c17 -49 40 -100 46 -100 4 0 18 -21 30 -46 13 -25 25 -43
28 -40 8 8 -49 132 -67 146 -3 3 -14 16 -24 30 -10 14 -16 18 -13 10z"/>
<path d="M2765 5520 c3 -5 11 -10 16 -10 6 0 7 5 4 10 -3 6 -11 10 -16 10 -6
0 -7 -4 -4 -10z"/>
<path d="M6482 5468 c2 -14 11 -24 23 -25 11 -2 14 0 8 3 -7 3 -13 14 -13 25
0 10 -5 19 -11 19 -6 0 -9 -10 -7 -22z"/>
<path d="M5041 5364 c0 -11 3 -14 6 -6 3 7 2 16 -1 19 -3 4 -6 -2 -5 -13z"/>
<path d="M3589 4983 c-14 -38 -8 -58 20 -58 34 0 49 27 31 59 -17 33 -38 33
-51 -1z"/>
<path d="M4329 4805 c-224 -72 -425 -310 -471 -555 -26 -142 56 -270 191 -299
62 -13 146 -4 189 20 18 11 40 19 48 19 8 0 14 4 14 9 0 13 63 51 85 51 22 0
95 52 95 68 0 7 4 10 10 7 5 -3 7 0 4 9 -3 9 3 17 16 21 12 4 28 22 36 41 8
19 19 32 24 29 6 -4 7 1 3 11 -4 12 -3 15 5 10 8 -4 10 -2 6 8 -3 8 0 25 7 38
7 13 14 25 14 28 8 43 18 69 26 64 5 -3 9 12 9 34 0 39 30 89 45 74 4 -4 5 37
3 90 -3 73 -8 101 -21 116 -9 10 -17 22 -17 27 0 16 -70 76 -82 69 -7 -4 -8
-3 -4 4 4 8 -3 16 -19 22 -44 17 -136 10 -216 -15z m174 -41 c42 -21 67 -44
67 -60 0 -10 -10 -7 -36 8 -29 17 -46 20 -100 15 -36 -2 -71 -10 -77 -16 -8
-8 -2 -10 23 -5 39 7 37 7 65 4 11 -1 -2 -8 -28 -15 -27 -7 -73 -23 -103 -36
-45 -18 -60 -20 -80 -11 -52 24 -13 87 73 118 53 19 157 18 196 -2z m-173
-134 c-67 -25 -75 -25 -30 0 19 11 46 19 60 19 17 0 6 -6 -30 -19z m-213 -487
c38 -58 129 -69 228 -28 78 32 90 32 69 -1 -22 -32 -104 -74 -146 -74 -91 0
-164 53 -171 125 -3 22 -2 31 0 21 3 -11 12 -30 20 -43z m243 36 c-42 -37 -71
-49 -113 -49 -30 1 -28 2 18 19 28 10 66 28 85 39 48 30 51 27 10 -9z"/>
<path d="M2490 4270 c0 -5 5 -10 10 -10 6 0 10 5 10 10 0 6 -4 10 -10 10 -5 0
-10 -4 -10 -10z"/>
<path d="M5691 4224 c0 -11 3 -14 6 -6 3 7 2 16 -1 19 -3 4 -6 -2 -5 -13z"/>
<path d="M2620 3974 c0 -3 7 -12 15 -20 16 -17 18 -14 9 10 -6 15 -24 23 -24
10z"/>
<path d="M2605 3940 c3 -5 8 -10 11 -10 2 0 4 5 4 10 0 6 -5 10 -11 10 -5 0
-7 -4 -4 -10z"/>
<path d="M2635 3920 c-17 -8 -17 -9 7 -7 15 1 24 5 22 9 -3 4 -6 8 -7 7 -1 0
-11 -4 -22 -9z"/>
<path d="M2390 3900 c8 -5 20 -10 25 -10 6 0 3 5 -5 10 -8 5 -19 10 -25 10 -5
0 -3 -5 5 -10z"/>
<path d="M2651 3884 c0 -11 3 -14 6 -6 3 7 2 16 -1 19 -3 4 -6 -2 -5 -13z"/>
<path d="M2489 3874 c35 -8 66 -12 68 -10 5 5 -92 26 -115 25 -9 -1 12 -7 47
-15z"/>
<path d="M3756 3701 c-23 -43 -20 -52 5 -12 11 18 18 35 15 38 -2 3 -12 -9
-20 -26z"/>
<path d="M3695 3599 c-11 -17 1 -21 15 -4 8 9 8 15 2 15 -6 0 -14 -5 -17 -11z"/>
<path d="M5188 3224 c-10 -16 11 -84 26 -84 8 0 17 -34 28 -102 25 -167 97
-313 212 -431 28 -28 67 -60 86 -70 l35 -18 -25 20 c-14 12 -42 35 -63 52 -48
39 -130 155 -167 236 -32 70 -56 166 -66 266 -5 53 -10 67 -24 67 -11 0 -20
13 -26 38 -5 20 -12 32 -16 26z"/>
<path d="M4726 3204 c-9 -8 -16 -23 -16 -32 0 -13 2 -13 14 3 13 17 17 18 40
6 14 -8 40 -27 58 -42 l33 -28 -31 -31 -31 -31 -42 42 c-34 34 -44 40 -52 28
-13 -21 -12 -26 26 -63 29 -29 32 -36 20 -46 -12 -10 -15 -9 -15 5 0 17 -26
44 -44 45 -4 0 -6 -9 -3 -20 6 -22 -8 -28 -16 -7 -2 6 -6 10 -9 7 -2 -3 -26
-32 -54 -64 -27 -33 -66 -78 -86 -100 -37 -40 -43 -72 -7 -40 17 16 20 15 52
-13 30 -27 33 -32 21 -48 -8 -10 -14 -25 -14 -33 0 -19 115 -138 159 -164 20
-12 49 -32 65 -45 l28 -23 32 30 c17 17 43 34 59 37 27 5 38 23 15 23 -10 0
-9 3 1 9 20 13 -15 247 -41 273 -25 25 -23 38 6 38 14 0 28 5 31 10 7 11 15
110 9 110 -2 0 -22 -16 -44 -36 -25 -23 -40 -45 -40 -60 0 -13 -5 -24 -11 -24
-7 0 -9 9 -6 21 5 19 3 19 -26 -5 -62 -51 -90 -70 -82 -56 6 10 4 12 -8 7 -15
-6 -14 0 3 46 19 50 32 65 119 135 46 37 49 25 -33 111 -43 45 -57 49 -80 25z
m179 -244 c-3 -5 -16 -15 -28 -21 -22 -12 -22 -12 -3 10 19 21 43 30 31 11z
m-205 -105 c-7 -8 -17 -15 -23 -15 -6 0 -2 7 9 15 25 19 30 19 14 0z"/>
<path d="M4832 3211 c4 -12 77 -91 83 -91 14 0 1 21 -35 58 -37 40 -56 52 -48
33z"/>
<path d="M6377 3093 c-18 -18 -5 -32 28 -31 27 1 35 6 35 20 0 13 -7 18 -28
18 -16 0 -32 -3 -35 -7z"/>
<path d="M5511 3074 c0 -11 3 -14 6 -6 3 7 2 16 -1 19 -3 4 -6 -2 -5 -13z"/>
<path d="M6607 2926 c-55 -78 -98 -116 -129 -116 -11 0 -44 36 -123 135 -9 11
-13 13 -9 5 4 -8 28 -42 54 -75 26 -33 50 -66 54 -73 6 -10 -18 -40 -75 -96
-46 -45 -97 -97 -114 -116 -53 -58 3 -17 88 66 45 44 109 102 141 128 63 50
95 87 146 167 52 80 30 64 -33 -25z"/>
<path d="M5451 2881 c-8 -6 -9 -11 -3 -15 6 -3 14 -1 17 5 9 14 2 20 -14 10z"/>
<path d="M5431 2844 c0 -11 3 -14 6 -6 3 7 2 16 -1 19 -3 4 -6 -2 -5 -13z"/>
<path d="M6550 2813 c0 -5 36 -55 80 -113 44 -58 113 -150 152 -205 66 -92
176 -232 220 -279 10 -11 18 -28 18 -38 0 -10 7 -18 16 -18 13 0 13 4 -3 31
-10 17 -37 53 -60 79 -24 26 -43 51 -43 54 0 5 -20 33 -95 131 -84 110 -205
276 -225 310 -24 40 -38 55 -52 55 -5 0 -8 -3 -8 -7z"/>
<path d="M5297 2631 c-7 -35 1 -71 17 -71 21 0 59 -48 53 -64 -11 -27 -36 -18
-45 16 l-8 33 -27 -27 c-15 -15 -27 -35 -26 -45 0 -15 2 -14 11 5 12 23 23 28
32 13 7 -11 -19 -46 -36 -46 -16 0 -178 -167 -178 -183 0 -7 -5 -21 -12 -31
-10 -16 -6 -26 25 -68 19 -27 60 -71 89 -99 29 -28 66 -70 81 -93 l29 -43 26
25 c15 13 39 32 55 42 15 9 27 24 27 32 0 8 -5 11 -11 7 -7 -4 -30 -8 -53 -10
-23 -2 -33 -1 -23 2 9 3 17 10 17 16 0 7 -21 8 -62 4 -55 -7 -60 -6 -49 8 8 9
10 16 5 16 -5 0 -3 4 4 8 16 11 -12 110 -37 129 -14 11 -10 13 24 14 24 1 31
3 18 6 -28 5 -29 13 -3 55 28 47 25 59 -6 21 -28 -36 -44 -42 -44 -17 0 10 6
14 14 11 9 -4 13 -1 10 6 -2 7 -1 31 4 52 6 32 13 40 30 41 20 1 22 -2 18 -30
l-5 -31 11 28 c7 15 15 26 18 25 3 -2 26 -25 50 -52 42 -45 43 -49 26 -62 -13
-9 -16 -17 -9 -26 5 -7 20 -51 33 -96 20 -71 21 -85 9 -93 -11 -7 -11 -9 4 -9
9 0 25 -13 35 -29 17 -28 19 -29 50 -16 29 13 44 35 23 35 -23 0 -19 33 7 56
l27 25 -30 -6 c-92 -19 -81 -26 -109 67 -14 46 -26 88 -26 92 0 5 11 6 25 3
14 -2 23 -2 21 1 -3 3 2 11 12 19 16 13 15 14 -4 10 -17 -3 -25 3 -38 30 -9
18 -16 43 -16 53 0 11 -4 20 -10 20 -10 0 -14 -14 -10 -40 1 -10 -6 -7 -24 9
-28 27 -36 42 -10 20 13 -10 17 -10 25 2 5 8 9 21 9 30 0 25 25 80 33 72 15
-15 5 9 -21 50 -15 24 -33 42 -40 39 -8 -2 -11 6 -10 22 1 14 6 26 11 26 4 0
5 5 2 10 -12 20 -33 10 -38 -19z"/>
<path d="M7447 2512 c-23 -26 -16 -56 34 -133 22 -33 39 -63 39 -67 1 -13 79
-86 85 -80 9 9 -18 58 -59 107 -55 66 -43 62 30 -9 88 -87 120 -145 133 -243
6 -43 11 -95 12 -115 0 -32 6 -41 44 -69 l45 -32 35 21 c23 13 34 26 31 35 -3
8 -1 35 4 60 9 39 7 54 -15 112 -44 113 -64 152 -127 238 -65 89 -95 119 -161
157 -62 36 -108 42 -130 18z m298 -342 c3 -5 1 -10 -4 -10 -6 0 -11 5 -11 10
0 6 2 10 4 10 3 0 8 -4 11 -10z m12 -42 c-3 -8 -6 -5 -6 6 -1 11 2 17 5 13 3
-3 4 -12 1 -19z m43 1 c0 -5 -4 -9 -10 -9 -5 0 -10 7 -10 16 0 8 5 12 10 9 6
-3 10 -10 10 -16z m-3 -121 c-3 -8 -6 -5 -6 6 -1 11 2 17 5 13 3 -3 4 -12 1
-19z"/>
<path d="M6220 2497 c0 -27 13 -36 26 -16 3 6 -1 18 -10 27 -15 15 -16 14 -16
-11z"/>
<path d="M4817 2494 c-10 -10 33 -65 45 -58 6 4 9 3 5 -2 -3 -5 32 -47 78 -93
73 -74 83 -80 82 -57 -1 15 -7 24 -13 22 -7 -3 -10 3 -7 13 6 22 -71 117 -124
154 -40 27 -55 32 -66 21z"/>
<path d="M7127 2214 c-21 -22 10 -64 48 -64 13 0 27 5 31 12 4 7 3 8 -4 4 -7
-4 -12 -2 -12 3 0 6 -6 11 -14 11 -7 0 -20 9 -27 21 -8 11 -17 17 -22 13z"/>
<path d="M5312 2198 c-17 -17 -15 -28 10 -84 22 -51 38 -49 17 2 -7 16 -11 44
-10 62 3 35 1 38 -17 20z"/>
<path d="M7053 2082 c-55 -30 -129 -95 -172 -152 -50 -68 -80 -143 -94 -238
-10 -73 -10 -74 15 -95 15 -12 29 -33 33 -46 4 -13 20 -46 36 -73 16 -27 25
-47 19 -43 -19 11 -10 -7 29 -65 21 -31 34 -57 27 -58 -51 -5 -76 -22 -76 -53
0 -16 -7 -37 -16 -48 -31 -35 -76 -154 -72 -188 3 -24 0 -33 -11 -33 -13 0
-14 -2 -1 -15 18 -17 133 -28 520 -50 146 -9 416 -25 600 -36 507 -30 888 -35
1085 -15 174 19 294 39 172 30 -37 -3 -115 -6 -173 -6 -91 0 -107 3 -119 19
-7 10 -10 22 -6 28 13 16 10 96 -4 101 -20 8 -82 12 -240 15 -82 1 -123 4 -90
6 387 20 642 48 670 74 5 6 -36 6 -105 2 -143 -10 -276 -10 -285 -1 -4 4 -8
40 -10 80 -4 131 -3 128 -24 128 -11 0 -22 4 -25 9 -8 12 18 21 57 21 41 0
268 32 263 37 -7 8 -301 -29 -326 -40 -21 -11 -27 -26 -47 -127 -15 -78 -28
-119 -40 -127 -26 -20 -33 -16 -23 13 6 14 10 35 10 47 0 18 -2 20 -11 7 -9
-13 -10 -13 -6 2 3 9 9 45 13 79 6 50 4 61 -7 57 -12 -4 -25 -45 -54 -176 -3
-13 -18 -27 -33 -33 -46 -19 -637 3 -658 24 -2 2 10 75 26 163 16 87 30 163
30 168 0 5 24 31 53 58 48 45 50 47 20 36 -18 -7 -33 -18 -33 -26 0 -7 -7 -15
-15 -18 -23 -9 -44 -79 -73 -238 l-27 -149 -100 2 c-168 2 -345 13 -351 22 -2
5 4 25 14 46 26 51 95 269 117 368 16 74 21 84 67 127 l50 47 -52 87 c-37 60
-55 83 -63 75 -7 -7 -2 -17 16 -31 15 -12 27 -26 27 -31 0 -6 9 -28 19 -49 11
-22 17 -40 15 -40 -2 0 -24 31 -50 69 l-45 69 -40 -11 c-39 -9 -43 -8 -97 32
-120 87 -266 181 -281 181 -9 -1 -30 -9 -48 -18z m442 -305 c16 -34 25 -66 24
-96 -1 -38 -2 -42 -9 -21 -4 14 -24 62 -44 107 -20 45 -36 85 -36 89 0 18 42
-33 65 -79z m-322 60 c50 -21 104 -88 123 -153 29 -102 2 -181 -86 -250 -47
-37 -65 -45 -116 -50 -49 -5 -67 -3 -100 14 -122 62 -162 241 -78 342 14 16
22 30 18 30 -13 0 50 51 81 66 39 17 117 18 158 1z m261 -62 c29 -48 52 -147
41 -173 -5 -12 -12 1 -21 38 -8 30 -30 83 -49 117 -31 56 -33 63 -16 63 12 0
29 -17 45 -45z m239 -672 c-7 -2 -19 -2 -25 0 -7 3 -2 5 12 5 14 0 19 -2 13
-5z"/>
<path d="M6992 1714 c-12 -8 -28 -28 -36 -43 -20 -38 -3 -114 31 -141 38 -30
45 -24 12 11 -36 39 -39 93 -8 133 25 32 38 27 15 -6 -26 -37 -19 -118 10
-118 8 0 14 -5 14 -12 0 -6 7 -3 15 8 13 16 14 17 9 1 -6 -16 -4 -16 19 -6 32
14 52 59 42 96 -4 19 -3 25 4 18 5 -5 11 -26 14 -45 l4 -35 1 36 c3 54 -47
119 -91 119 -18 0 -43 -7 -55 -16z"/>
<path d="M7102 1540 c-12 -16 -16 -27 -9 -25 14 6 41 45 34 51 -2 2 -13 -10
-25 -26z"/>
<path d="M7048 1503 c7 -3 16 -2 19 1 4 3 -2 6 -13 5 -11 0 -14 -3 -6 -6z"/>
<path d="M7670 2083 c0 -7 -5 -12 -11 -10 -7 1 -16 -14 -21 -33 -6 -19 -25
-54 -44 -77 l-34 -42 39 -52 c39 -52 53 -76 66 -114 6 -18 12 -14 54 34 31 36
46 61 43 73 -4 17 -38 49 -78 75 -18 11 -18 12 4 12 14 1 22 7 22 19 0 20 -39
133 -40 115z"/>
<path d="M5456 1870 c2 -58 3 -108 4 -112 1 -18 36 -6 45 15 6 12 17 21 24 19
7 -1 10 2 7 7 -4 5 1 16 9 24 20 20 19 27 -3 27 -9 0 -26 -11 -36 -25 -28 -38
-36 -31 -37 33 -1 31 -5 71 -9 87 -5 18 -6 -13 -4 -75z"/>
<path d="M5311 1864 c0 -11 3 -14 6 -6 3 7 2 16 -1 19 -3 4 -6 -2 -5 -13z"/>
<path d="M5364 1815 c-30 -14 -45 -29 -52 -52 -11 -37 -12 -37 58 -22 54 11
67 29 23 29 l-28 1 23 19 c39 33 24 48 -24 25z"/>
<path d="M8211 1809 c-93 -18 -191 -59 -191 -79 0 -4 8 -10 18 -13 9 -2 26 -8
37 -12 15 -5 16 -4 6 3 -11 8 -9 13 11 26 30 19 161 52 246 62 41 4 59 10 50
15 -16 11 -119 10 -177 -2z"/>
<path d="M4670 1701 c0 -6 4 -13 10 -16 6 -3 7 1 4 9 -7 18 -14 21 -14 7z"/>
<path d="M8157 1659 c7 -7 15 -10 18 -7 3 3 -2 9 -12 12 -14 6 -15 5 -6 -5z"/>
<path d="M7608 1642 c-10 -2 -18 -8 -18 -13 0 -11 11 -11 30 1 18 11 11 18
-12 12z"/>
<path d="M7771 1538 c5 -18 9 -34 9 -35 0 -2 4 -3 9 -3 16 0 23 40 11 55 -23
28 -40 18 -29 -17z"/>
<path d="M4961 1526 c-10 -12 -8 -13 8 -9 12 3 21 9 21 14 0 14 -16 11 -29 -5z"/>
<path d="M5031 1507 c2 -1 13 -9 24 -17 19 -14 19 -14 6 3 -7 9 -18 17 -24 17
-6 0 -8 -1 -6 -3z"/>
<path d="M5168 1413 c6 -2 18 -2 25 0 6 3 1 5 -13 5 -14 0 -19 -2 -12 -5z"/>
<path d="M7717 1246 c-7 -16 1 -26 20 -26 7 0 13 9 13 20 0 23 -25 27 -33 6z"/>
<path d="M8631 1234 c0 -11 3 -14 6 -6 3 7 2 16 -1 19 -3 4 -6 -2 -5 -13z"/>
<path d="M1825 940 c3 -5 8 -10 11 -10 2 0 4 5 4 10 0 6 -5 10 -11 10 -5 0 -7
-4 -4 -10z"/>
</g>
</svg>
