<?xml version="1.0" standalone="no"?>
<!DOCTYPE svg PUBLIC "-//W3C//DTD SVG 20010904//EN"
 "http://www.w3.org/TR/2001/REC-SVG-20010904/DTD/svg10.dtd">
<svg version="1.0" xmlns="http://www.w3.org/2000/svg"
 width="206.000000pt" height="203.000000pt" viewBox="0 0 206.000000 203.000000"
 preserveAspectRatio="xMidYMid meet">

<g transform="translate(0.000000,203.000000) scale(0.100000,-0.100000)"
fill="#000000" stroke="none">
<path d="M147 1996 c-45 -16 -74 -40 -93 -78 -21 -41 -21 -1752 0 -1801 17
-41 57 -74 107 -87 25 -7 333 -10 896 -8 837 3 859 3 892 23 19 11 43 33 55
48 21 28 21 31 24 916 l2 888 -22 33 c-13 19 -39 43 -58 54 -34 21 -47 21
-900 23 -712 2 -872 0 -903 -11z m1781 -56 c64 -39 62 -4 62 -925 0 -921 2
-886 -62 -925 -32 -20 -48 -20 -893 -20 -845 0 -861 0 -893 20 -64 39 -62 4
-62 925 0 921 -2 886 62 925 32 20 48 20 893 20 845 0 861 0 893 -20z"/>
<path d="M180 1903 c-40 -15 -40 -4 -40 -886 0 -566 3 -855 10 -868 10 -19 31
-19 885 -19 854 0 875 0 885 19 7 13 10 302 10 868 0 718 -2 852 -14 869 -14
19 -36 19 -868 21 -469 1 -860 -1 -868 -4z m1207 -88 c103 -19 210 -73 277
-139 110 -107 146 -238 146 -537 l0 -149 -322 -2 -323 -3 -3 -140 c-5 -203 5
-322 29 -346 20 -20 69 -25 99 -9 31 17 42 70 46 235 l5 160 232 0 232 0 3
-104 c6 -212 -31 -326 -142 -437 -110 -109 -245 -151 -456 -141 -248 12 -405
96 -485 260 -52 107 -57 164 -53 599 4 356 5 387 25 445 43 128 112 208 227
263 121 57 305 75 463 45z m-770 -6 c42 -16 72 -48 84 -92 9 -36 7 -46 -21
-106 -17 -36 -35 -73 -39 -81 -17 -32 -284 -39 -345 -9 -65 31 -92 149 -52
227 31 61 64 72 213 72 72 0 144 -5 160 -11z m-232 -370 c14 -41 42 -50 150
-48 l80 2 -2 -69 -1 -69 -189 0 -188 0 -3 68 c-3 66 -2 67 22 67 l25 0 -24 25
c-23 22 -31 45 -21 56 2 2 35 3 72 3 68 -2 68 -2 79 -35z m112 -233 c124 34
119 35 113 -38 l-5 -62 -45 -12 -45 -11 50 -4 c28 -2 49 -7 48 -11 -2 -5 -3
-35 -3 -68 l0 -60 -190 0 -191 0 3 68 3 67 55 5 55 5 -57 18 -58 18 0 53 c0
29 2 55 5 58 3 3 44 -7 90 -23 l85 -27 87 24z m-197 -365 l0 -69 -30 -4 c-17
-3 -32 -2 -35 0 -3 3 -5 36 -5 74 l0 68 35 0 35 0 0 -69z m311 65 c2 -2 2 -34
1 -70 l-4 -66 -139 0 -139 0 0 70 0 70 138 0 c76 0 141 -2 143 -4z m5 -200 c1
-10 4 -41 5 -68 l3 -48 -150 -3 c-152 -2 -177 -7 -168 -32 5 -12 38 -15 166
-17 l159 -3 29 -67 28 -68 -174 -1 c-193 -2 -184 -1 -202 -13 -10 -6 -10 -11
-1 -22 9 -11 52 -14 213 -14 l202 0 39 -41 c22 -22 59 -52 83 -66 23 -14 42
-27 42 -29 0 -2 -148 -4 -330 -4 l-330 0 0 70 c0 64 2 70 21 70 l20 0 -20 26
c-28 36 -28 102 0 137 l20 27 -20 22 c-32 33 -31 100 1 135 26 28 44 30 217
29 134 -1 144 -2 147 -20z"/>
<path d="M1185 1527 c-11 -18 -16 -57 -18 -153 l-2 -129 73 -3 74 -3 -4 141
c-3 126 -5 143 -22 156 -32 23 -83 18 -101 -9z"/>
<path d="M304 1669 c-13 -22 23 -29 161 -29 138 0 174 7 161 29 -5 7 -59 11
-161 11 -102 0 -156 -4 -161 -11z"/>
</g>
</svg>
